<!--?xml version="1.0" encoding="us-ascii" standalone="no"?--><svg xmlns="http://www.w3.org/2000/svg" xmlns:xlink="http://www.w3.org/1999/xlink" contentstyletype="text/css" height="686px" preserveAspectRatio="none" style="width:829px;height:686px;background:#FFFFFF;" version="1.1" viewBox="0 0 829 686" width="829px" zoomAndPan="magnify"><defs></defs><g><ellipse cx="346.875" cy="20" fill="#222222" rx="10" ry="10" style="stroke:#222222;stroke-width:1.0;"></ellipse><rect fill="#F1F1F1" height="33.9688" rx="12.5" ry="12.5" style="stroke:#181818;stroke-width:0.5;" width="209" x="242.375" y="50"></rect><text fill="#000000" font-family="sans-serif" font-size="12" lengthAdjust="spacing" textLength="189" x="252.375" y="71.1387">User selects "Add Task" option</text><rect fill="#F1F1F1" height="33.9688" rx="12.5" ry="12.5" style="stroke:#181818;stroke-width:0.5;" width="180" x="256.875" y="103.9688"></rect><text fill="#000000" font-family="sans-serif" font-size="12" lengthAdjust="spacing" textLength="160" x="266.875" y="125.1074">System displays task form</text><rect fill="#F1F1F1" height="33.9688" rx="12.5" ry="12.5" style="stroke:#181818;stroke-width:0.5;" width="165" x="264.375" y="157.9375"></rect><text fill="#000000" font-family="sans-serif" font-size="12" lengthAdjust="spacing" textLength="145" x="274.375" y="179.0762">User enters task details</text><polygon fill="#F1F1F1" points="313.875,211.9063,379.875,211.9063,391.875,223.9063,379.875,235.9063,313.875,235.9063,301.875,223.9063,313.875,211.9063" style="stroke:#181818;stroke-width:0.5;"></polygon><text fill="#000000" font-family="sans-serif" font-size="11" lengthAdjust="spacing" textLength="66" x="313.875" y="227.7144">Valid input?</text><text fill="#000000" font-family="sans-serif" font-size="11" lengthAdjust="spacing" textLength="21" x="280.875" y="221.312">yes</text><text fill="#000000" font-family="sans-serif" font-size="11" lengthAdjust="spacing" textLength="14" x="391.875" y="221.312">no</text><rect fill="#F1F1F1" height="33.9688" rx="12.5" ry="12.5" style="stroke:#181818;stroke-width:0.5;" width="210" x="34.5" y="245.9063"></rect><text fill="#000000" font-family="sans-serif" font-size="12" lengthAdjust="spacing" textLength="190" x="44.5" y="267.0449">System saves task to database</text><rect fill="#F1F1F1" height="33.9688" rx="12.5" ry="12.5" style="stroke:#181818;stroke-width:0.5;" width="257" x="11" y="299.875"></rect><text fill="#000000" font-family="sans-serif" font-size="12" lengthAdjust="spacing" textLength="237" x="21" y="321.0137">System displays confirmation message</text><rect fill="#F1F1F1" height="33.9688" rx="12.5" ry="12.5" style="stroke:#181818;stroke-width:0.5;" width="214" x="447.25" y="245.9063"></rect><text fill="#000000" font-family="sans-serif" font-size="12" lengthAdjust="spacing" textLength="194" x="457.25" y="267.0449">System displays error message</text><rect fill="#F1F1F1" height="33.9688" rx="12.5" ry="12.5" style="stroke:#181818;stroke-width:0.5;" width="178" x="465.25" y="353.8438"></rect><text fill="#000000" font-family="sans-serif" font-size="12" lengthAdjust="spacing" textLength="158" x="475.25" y="374.9824">User modifies task details</text><polygon fill="#F1F1F1" points="521.25,407.8125,587.25,407.8125,599.25,419.8125,587.25,431.8125,521.25,431.8125,509.25,419.8125,521.25,407.8125" style="stroke:#181818;stroke-width:0.5;"></polygon><text fill="#000000" font-family="sans-serif" font-size="11" lengthAdjust="spacing" textLength="66" x="521.25" y="423.6206">Valid input?</text><text fill="#000000" font-family="sans-serif" font-size="11" lengthAdjust="spacing" textLength="21" x="488.25" y="417.2183">yes</text><text fill="#000000" font-family="sans-serif" font-size="11" lengthAdjust="spacing" textLength="14" x="599.25" y="417.2183">no</text><rect fill="#F1F1F1" height="33.9688" rx="12.5" ry="12.5" style="stroke:#181818;stroke-width:0.5;" width="210" x="321.5" y="441.8125"></rect><text fill="#000000" font-family="sans-serif" font-size="12" lengthAdjust="spacing" textLength="190" x="331.5" y="462.9512">System saves task to database</text><rect fill="#F1F1F1" height="33.9688" rx="12.5" ry="12.5" style="stroke:#181818;stroke-width:0.5;" width="257" x="298" y="495.7813"></rect><text fill="#000000" font-family="sans-serif" font-size="12" lengthAdjust="spacing" textLength="237" x="308" y="516.9199">System displays confirmation message</text><rect fill="#F1F1F1" height="33.9688" rx="12.5" ry="12.5" style="stroke:#181818;stroke-width:0.5;" width="214" x="575" y="441.8125"></rect><text fill="#000000" font-family="sans-serif" font-size="12" lengthAdjust="spacing" textLength="194" x="585" y="462.9512">System displays error message</text><polygon fill="#F1F1F1" points="554.25,535.75,566.25,547.75,554.25,559.75,542.25,547.75,554.25,535.75" style="stroke:#181818;stroke-width:0.5;"></polygon><polygon fill="#F1F1F1" points="554.25,299.875,566.25,311.875,554.25,323.875,542.25,311.875,554.25,299.875" style="stroke:#181818;stroke-width:0.5;"></polygon><polygon fill="#F1F1F1" points="505.75,579.75,602.75,579.75,614.75,591.75,602.75,603.75,505.75,603.75,493.75,591.75,505.75,579.75" style="stroke:#181818;stroke-width:0.5;"></polygon><text fill="#000000" font-family="sans-serif" font-size="11" lengthAdjust="spacing" textLength="97" x="505.75" y="595.5581">Valid input? is no</text><polygon fill="#F1F1F1" points="346.875,609.75,358.875,621.75,346.875,633.75,334.875,621.75,346.875,609.75" style="stroke:#181818;stroke-width:0.5;"></polygon><ellipse cx="346.875" cy="664.75" fill="none" rx="11" ry="11" style="stroke:#222222;stroke-width:1.0;"></ellipse><ellipse cx="346.875" cy="664.75" fill="#222222" rx="6" ry="6" style="stroke:#111111;stroke-width:1.0;"></ellipse><line style="stroke:#181818;stroke-width:1.0;" x1="346.875" x2="346.875" y1="30" y2="50"></line><polygon fill="#181818" points="342.875,40,346.875,50,350.875,40,346.875,44" style="stroke:#181818;stroke-width:1.0;"></polygon><line style="stroke:#181818;stroke-width:1.0;" x1="346.875" x2="346.875" y1="83.9688" y2="103.9688"></line><polygon fill="#181818" points="342.875,93.9688,346.875,103.9688,350.875,93.9688,346.875,97.9688" style="stroke:#181818;stroke-width:1.0;"></polygon><line style="stroke:#181818;stroke-width:1.0;" x1="346.875" x2="346.875" y1="137.9375" y2="157.9375"></line><polygon fill="#181818" points="342.875,147.9375,346.875,157.9375,350.875,147.9375,346.875,151.9375" style="stroke:#181818;stroke-width:1.0;"></polygon><line style="stroke:#181818;stroke-width:1.0;" x1="139.5" x2="139.5" y1="279.875" y2="299.875"></line><polygon fill="#181818" points="135.5,289.875,139.5,299.875,143.5,289.875,139.5,293.875" style="stroke:#181818;stroke-width:1.0;"></polygon><line style="stroke:#181818;stroke-width:1.0;" x1="426.5" x2="426.5" y1="475.7813" y2="495.7813"></line><polygon fill="#181818" points="422.5,485.7813,426.5,495.7813,430.5,485.7813,426.5,489.7813" style="stroke:#181818;stroke-width:1.0;"></polygon><line style="stroke:#181818;stroke-width:1.0;" x1="509.25" x2="426.5" y1="419.8125" y2="419.8125"></line><line style="stroke:#181818;stroke-width:1.0;" x1="426.5" x2="426.5" y1="419.8125" y2="441.8125"></line><polygon fill="#181818" points="422.5,431.8125,426.5,441.8125,430.5,431.8125,426.5,435.8125" style="stroke:#181818;stroke-width:1.0;"></polygon><line style="stroke:#181818;stroke-width:1.0;" x1="599.25" x2="682" y1="419.8125" y2="419.8125"></line><line style="stroke:#181818;stroke-width:1.0;" x1="682" x2="682" y1="419.8125" y2="441.8125"></line><polygon fill="#181818" points="678,431.8125,682,441.8125,686,431.8125,682,435.8125" style="stroke:#181818;stroke-width:1.0;"></polygon><line style="stroke:#181818;stroke-width:1.0;" x1="426.5" x2="426.5" y1="529.75" y2="547.75"></line><line style="stroke:#181818;stroke-width:1.0;" x1="426.5" x2="542.25" y1="547.75" y2="547.75"></line><polygon fill="#181818" points="532.25,543.75,542.25,547.75,532.25,551.75,536.25,547.75" style="stroke:#181818;stroke-width:1.0;"></polygon><line style="stroke:#181818;stroke-width:1.0;" x1="682" x2="682" y1="475.7813" y2="547.75"></line><line style="stroke:#181818;stroke-width:1.0;" x1="682" x2="566.25" y1="547.75" y2="547.75"></line><polygon fill="#181818" points="576.25,543.75,566.25,547.75,576.25,551.75,572.25,547.75" style="stroke:#181818;stroke-width:1.0;"></polygon><line style="stroke:#181818;stroke-width:1.0;" x1="554.25" x2="554.25" y1="387.8125" y2="407.8125"></line><polygon fill="#181818" points="550.25,397.8125,554.25,407.8125,558.25,397.8125,554.25,401.8125" style="stroke:#181818;stroke-width:1.0;"></polygon><line style="stroke:#181818;stroke-width:1.0;" x1="554.25" x2="554.25" y1="323.875" y2="353.8438"></line><polygon fill="#181818" points="550.25,343.8438,554.25,353.8438,558.25,343.8438,554.25,347.8438" style="stroke:#181818;stroke-width:1.0;"></polygon><line style="stroke:#181818;stroke-width:1.0;" x1="614.75" x2="803" y1="591.75" y2="591.75"></line><polygon fill="#181818" points="799,466.7969,803,456.7969,807,466.7969,803,462.7969" style="stroke:#181818;stroke-width:1.0;"></polygon><line style="stroke:#181818;stroke-width:1.0;" x1="803" x2="803" y1="311.875" y2="591.75"></line><line style="stroke:#181818;stroke-width:1.0;" x1="803" x2="566.25" y1="311.875" y2="311.875"></line><polygon fill="#181818" points="576.25,307.875,566.25,311.875,576.25,315.875,572.25,311.875" style="stroke:#181818;stroke-width:1.0;"></polygon><line style="stroke:#181818;stroke-width:1.0;" x1="554.25" x2="554.25" y1="559.75" y2="579.75"></line><polygon fill="#181818" points="550.25,569.75,554.25,579.75,558.25,569.75,554.25,573.75" style="stroke:#181818;stroke-width:1.0;"></polygon><line style="stroke:#181818;stroke-width:1.0;" x1="554.25" x2="554.25" y1="279.875" y2="299.875"></line><polygon fill="#181818" points="550.25,289.875,554.25,299.875,558.25,289.875,554.25,293.875" style="stroke:#181818;stroke-width:1.0;"></polygon><line style="stroke:#181818;stroke-width:1.0;" x1="301.875" x2="139.5" y1="223.9063" y2="223.9063"></line><line style="stroke:#181818;stroke-width:1.0;" x1="139.5" x2="139.5" y1="223.9063" y2="245.9063"></line><polygon fill="#181818" points="135.5,235.9063,139.5,245.9063,143.5,235.9063,139.5,239.9063" style="stroke:#181818;stroke-width:1.0;"></polygon><line style="stroke:#181818;stroke-width:1.0;" x1="391.875" x2="554.25" y1="223.9063" y2="223.9063"></line><line style="stroke:#181818;stroke-width:1.0;" x1="554.25" x2="554.25" y1="223.9063" y2="245.9063"></line><polygon fill="#181818" points="550.25,235.9063,554.25,245.9063,558.25,235.9063,554.25,239.9063" style="stroke:#181818;stroke-width:1.0;"></polygon><line style="stroke:#181818;stroke-width:1.0;" x1="139.5" x2="139.5" y1="333.8438" y2="621.75"></line><line style="stroke:#181818;stroke-width:1.0;" x1="139.5" x2="334.875" y1="621.75" y2="621.75"></line><polygon fill="#181818" points="324.875,617.75,334.875,621.75,324.875,625.75,328.875,621.75" style="stroke:#181818;stroke-width:1.0;"></polygon><line style="stroke:#181818;stroke-width:1.0;" x1="554.25" x2="554.25" y1="603.75" y2="621.75"></line><line style="stroke:#181818;stroke-width:1.0;" x1="554.25" x2="358.875" y1="621.75" y2="621.75"></line><polygon fill="#181818" points="368.875,617.75,358.875,621.75,368.875,625.75,364.875,621.75" style="stroke:#181818;stroke-width:1.0;"></polygon><line style="stroke:#181818;stroke-width:1.0;" x1="346.875" x2="346.875" y1="191.9063" y2="211.9063"></line><polygon fill="#181818" points="342.875,201.9063,346.875,211.9063,350.875,201.9063,346.875,205.9063" style="stroke:#181818;stroke-width:1.0;"></polygon><line style="stroke:#181818;stroke-width:1.0;" x1="346.875" x2="346.875" y1="633.75" y2="653.75"></line><polygon fill="#181818" points="342.875,643.75,346.875,653.75,350.875,643.75,346.875,647.75" style="stroke:#181818;stroke-width:1.0;"></polygon><!--SRC=[XOzDRi8m48NtESKJg-GAP55n1jhkftXIHlMVF4EhtBuEf10eKdQM_RtdzwbHiMRxfboWxFbWYitEERoIVcsGiacAVRFTZseSu4Ipfr5XzHb3Ag6VmnoDotpls4YyzeqCQD_9YuF4VBAN3dRaY7PaxHhWhrNfc-Ue9JWo-Y3bVa5S_psaE4W9DCr2O5Nwh21xPRGnTSyYN4egDnOed9ci7YfytXwIaq7uSVq4h1YSErOjbjIAoOGkRPv6_ndLJAmALpVy7CNp_NA8Okgya6ef_m80]--></g></svg>