<!--?xml version="1.0" encoding="us-ascii" standalone="no"?--><svg xmlns="http://www.w3.org/2000/svg" xmlns:xlink="http://www.w3.org/1999/xlink" contentstyletype="text/css" height="804px" preserveAspectRatio="none" style="width:1062px;height:804px;background:#FFFFFF;" version="1.1" viewBox="0 0 1062 804" width="1062px" zoomAndPan="magnify"><defs></defs><g><ellipse cx="669.0625" cy="20" fill="#222222" rx="10" ry="10" style="stroke:#222222;stroke-width:1.0;"></ellipse><rect fill="#F1F1F1" height="33.9688" rx="12.5" ry="12.5" style="stroke:#181818;stroke-width:0.5;" width="169" x="584.5625" y="50"></rect><text fill="#000000" font-family="sans-serif" font-size="12" lengthAdjust="spacing" textLength="149" x="594.5625" y="71.1387">User selects task to edit</text><polygon fill="#F1F1F1" points="634.0625,103.9688,704.0625,103.9688,716.0625,115.9688,704.0625,127.9688,634.0625,127.9688,622.0625,115.9688,634.0625,103.9688" style="stroke:#181818;stroke-width:0.5;"></polygon><text fill="#000000" font-family="sans-serif" font-size="11" lengthAdjust="spacing" textLength="70" x="634.0625" y="119.7769">Task exists?</text><text fill="#000000" font-family="sans-serif" font-size="11" lengthAdjust="spacing" textLength="21" x="601.0625" y="113.3745">yes</text><text fill="#000000" font-family="sans-serif" font-size="11" lengthAdjust="spacing" textLength="14" x="716.0625" y="113.3745">no</text><rect fill="#F1F1F1" height="33.9688" rx="12.5" ry="12.5" style="stroke:#181818;stroke-width:0.5;" width="289" x="213.625" y="137.9688"></rect><text fill="#000000" font-family="sans-serif" font-size="12" lengthAdjust="spacing" textLength="269" x="223.625" y="159.1074">System retrieves task details from database</text><rect fill="#F1F1F1" height="33.9688" rx="12.5" ry="12.5" style="stroke:#181818;stroke-width:0.5;" width="311" x="202.625" y="191.9375"></rect><text fill="#000000" font-family="sans-serif" font-size="12" lengthAdjust="spacing" textLength="291" x="212.625" y="213.0762">System displays task form with pre-filled details</text><rect fill="#F1F1F1" height="33.9688" rx="12.5" ry="12.5" style="stroke:#181818;stroke-width:0.5;" width="178" x="269.125" y="245.9063"></rect><text fill="#000000" font-family="sans-serif" font-size="12" lengthAdjust="spacing" textLength="158" x="279.125" y="267.0449">User modifies task details</text><polygon fill="#F1F1F1" points="325.125,299.875,391.125,299.875,403.125,311.875,391.125,323.875,325.125,323.875,313.125,311.875,325.125,299.875" style="stroke:#181818;stroke-width:0.5;"></polygon><text fill="#000000" font-family="sans-serif" font-size="11" lengthAdjust="spacing" textLength="66" x="325.125" y="315.6831">Valid input?</text><text fill="#000000" font-family="sans-serif" font-size="11" lengthAdjust="spacing" textLength="21" x="292.125" y="309.2808">yes</text><text fill="#000000" font-family="sans-serif" font-size="11" lengthAdjust="spacing" textLength="14" x="403.125" y="309.2808">no</text><rect fill="#F1F1F1" height="33.9688" rx="12.5" ry="12.5" style="stroke:#181818;stroke-width:0.5;" width="267" x="11" y="333.875"></rect><text fill="#000000" font-family="sans-serif" font-size="12" lengthAdjust="spacing" textLength="247" x="21" y="355.0137">System saves modified task to database</text><rect fill="#F1F1F1" height="33.9688" rx="12.5" ry="12.5" style="stroke:#181818;stroke-width:0.5;" width="257" x="16" y="387.8438"></rect><text fill="#000000" font-family="sans-serif" font-size="12" lengthAdjust="spacing" textLength="237" x="26" y="408.9824">System displays confirmation message</text><rect fill="#F1F1F1" height="33.9688" rx="12.5" ry="12.5" style="stroke:#181818;stroke-width:0.5;" width="214" x="464.75" y="333.875"></rect><text fill="#000000" font-family="sans-serif" font-size="12" lengthAdjust="spacing" textLength="194" x="474.75" y="355.0137">System displays error message</text><rect fill="#F1F1F1" height="33.9688" rx="12.5" ry="12.5" style="stroke:#181818;stroke-width:0.5;" width="178" x="482.75" y="441.8125"></rect><text fill="#000000" font-family="sans-serif" font-size="12" lengthAdjust="spacing" textLength="158" x="492.75" y="462.9512">User modifies task details</text><polygon fill="#F1F1F1" points="538.75,495.7813,604.75,495.7813,616.75,507.7813,604.75,519.7813,538.75,519.7813,526.75,507.7813,538.75,495.7813" style="stroke:#181818;stroke-width:0.5;"></polygon><text fill="#000000" font-family="sans-serif" font-size="11" lengthAdjust="spacing" textLength="66" x="538.75" y="511.5894">Valid input?</text><text fill="#000000" font-family="sans-serif" font-size="11" lengthAdjust="spacing" textLength="21" x="505.75" y="505.187">yes</text><text fill="#000000" font-family="sans-serif" font-size="11" lengthAdjust="spacing" textLength="14" x="616.75" y="505.187">no</text><rect fill="#F1F1F1" height="33.9688" rx="12.5" ry="12.5" style="stroke:#181818;stroke-width:0.5;" width="267" x="308" y="529.7813"></rect><text fill="#000000" font-family="sans-serif" font-size="12" lengthAdjust="spacing" textLength="247" x="318" y="550.9199">System saves modified task to database</text><rect fill="#F1F1F1" height="33.9688" rx="12.5" ry="12.5" style="stroke:#181818;stroke-width:0.5;" width="257" x="313" y="583.75"></rect><text fill="#000000" font-family="sans-serif" font-size="12" lengthAdjust="spacing" textLength="237" x="323" y="604.8887">System displays confirmation message</text><rect fill="#F1F1F1" height="33.9688" rx="12.5" ry="12.5" style="stroke:#181818;stroke-width:0.5;" width="214" x="595" y="529.7813"></rect><text fill="#000000" font-family="sans-serif" font-size="12" lengthAdjust="spacing" textLength="194" x="605" y="550.9199">System displays error message</text><polygon fill="#F1F1F1" points="571.75,623.7188,583.75,635.7188,571.75,647.7188,559.75,635.7188,571.75,623.7188" style="stroke:#181818;stroke-width:0.5;"></polygon><polygon fill="#F1F1F1" points="571.75,387.8438,583.75,399.8438,571.75,411.8438,559.75,399.8438,571.75,387.8438" style="stroke:#181818;stroke-width:0.5;"></polygon><polygon fill="#F1F1F1" points="523.25,667.7188,620.25,667.7188,632.25,679.7188,620.25,691.7188,523.25,691.7188,511.25,679.7188,523.25,667.7188" style="stroke:#181818;stroke-width:0.5;"></polygon><text fill="#000000" font-family="sans-serif" font-size="11" lengthAdjust="spacing" textLength="97" x="523.25" y="683.5269">Valid input? is no</text><polygon fill="#F1F1F1" points="358.125,697.7188,370.125,709.7188,358.125,721.7188,346.125,709.7188,358.125,697.7188" style="stroke:#181818;stroke-width:0.5;"></polygon><rect fill="#F1F1F1" height="33.9688" rx="12.5" ry="12.5" style="stroke:#181818;stroke-width:0.5;" width="214" x="837" y="137.9688"></rect><text fill="#000000" font-family="sans-serif" font-size="12" lengthAdjust="spacing" textLength="194" x="847" y="159.1074">System displays error message</text><polygon fill="#F1F1F1" points="669.0625,727.7188,681.0625,739.7188,669.0625,751.7188,657.0625,739.7188,669.0625,727.7188" style="stroke:#181818;stroke-width:0.5;"></polygon><ellipse cx="669.0625" cy="782.7188" fill="none" rx="11" ry="11" style="stroke:#222222;stroke-width:1.0;"></ellipse><ellipse cx="669.0625" cy="782.7188" fill="#222222" rx="6" ry="6" style="stroke:#111111;stroke-width:1.0;"></ellipse><line style="stroke:#181818;stroke-width:1.0;" x1="669.0625" x2="669.0625" y1="30" y2="50"></line><polygon fill="#181818" points="665.0625,40,669.0625,50,673.0625,40,669.0625,44" style="stroke:#181818;stroke-width:1.0;"></polygon><line style="stroke:#181818;stroke-width:1.0;" x1="358.125" x2="358.125" y1="171.9375" y2="191.9375"></line><polygon fill="#181818" points="354.125,181.9375,358.125,191.9375,362.125,181.9375,358.125,185.9375" style="stroke:#181818;stroke-width:1.0;"></polygon><line style="stroke:#181818;stroke-width:1.0;" x1="358.125" x2="358.125" y1="225.9063" y2="245.9063"></line><polygon fill="#181818" points="354.125,235.9063,358.125,245.9063,362.125,235.9063,358.125,239.9063" style="stroke:#181818;stroke-width:1.0;"></polygon><line style="stroke:#181818;stroke-width:1.0;" x1="144.5" x2="144.5" y1="367.8438" y2="387.8438"></line><polygon fill="#181818" points="140.5,377.8438,144.5,387.8438,148.5,377.8438,144.5,381.8438" style="stroke:#181818;stroke-width:1.0;"></polygon><line style="stroke:#181818;stroke-width:1.0;" x1="441.5" x2="441.5" y1="563.75" y2="583.75"></line><polygon fill="#181818" points="437.5,573.75,441.5,583.75,445.5,573.75,441.5,577.75" style="stroke:#181818;stroke-width:1.0;"></polygon><line style="stroke:#181818;stroke-width:1.0;" x1="526.75" x2="441.5" y1="507.7813" y2="507.7813"></line><line style="stroke:#181818;stroke-width:1.0;" x1="441.5" x2="441.5" y1="507.7813" y2="529.7813"></line><polygon fill="#181818" points="437.5,519.7813,441.5,529.7813,445.5,519.7813,441.5,523.7813" style="stroke:#181818;stroke-width:1.0;"></polygon><line style="stroke:#181818;stroke-width:1.0;" x1="616.75" x2="702" y1="507.7813" y2="507.7813"></line><line style="stroke:#181818;stroke-width:1.0;" x1="702" x2="702" y1="507.7813" y2="529.7813"></line><polygon fill="#181818" points="698,519.7813,702,529.7813,706,519.7813,702,523.7813" style="stroke:#181818;stroke-width:1.0;"></polygon><line style="stroke:#181818;stroke-width:1.0;" x1="441.5" x2="441.5" y1="617.7188" y2="635.7188"></line><line style="stroke:#181818;stroke-width:1.0;" x1="441.5" x2="559.75" y1="635.7188" y2="635.7188"></line><polygon fill="#181818" points="549.75,631.7188,559.75,635.7188,549.75,639.7188,553.75,635.7188" style="stroke:#181818;stroke-width:1.0;"></polygon><line style="stroke:#181818;stroke-width:1.0;" x1="702" x2="702" y1="563.75" y2="635.7188"></line><line style="stroke:#181818;stroke-width:1.0;" x1="702" x2="583.75" y1="635.7188" y2="635.7188"></line><polygon fill="#181818" points="593.75,631.7188,583.75,635.7188,593.75,639.7188,589.75,635.7188" style="stroke:#181818;stroke-width:1.0;"></polygon><line style="stroke:#181818;stroke-width:1.0;" x1="571.75" x2="571.75" y1="475.7813" y2="495.7813"></line><polygon fill="#181818" points="567.75,485.7813,571.75,495.7813,575.75,485.7813,571.75,489.7813" style="stroke:#181818;stroke-width:1.0;"></polygon><line style="stroke:#181818;stroke-width:1.0;" x1="571.75" x2="571.75" y1="411.8438" y2="441.8125"></line><polygon fill="#181818" points="567.75,431.8125,571.75,441.8125,575.75,431.8125,571.75,435.8125" style="stroke:#181818;stroke-width:1.0;"></polygon><line style="stroke:#181818;stroke-width:1.0;" x1="632.25" x2="823" y1="679.7188" y2="679.7188"></line><polygon fill="#181818" points="819,554.7656,823,544.7656,827,554.7656,823,550.7656" style="stroke:#181818;stroke-width:1.0;"></polygon><line style="stroke:#181818;stroke-width:1.0;" x1="823" x2="823" y1="399.8438" y2="679.7188"></line><line style="stroke:#181818;stroke-width:1.0;" x1="823" x2="583.75" y1="399.8438" y2="399.8438"></line><polygon fill="#181818" points="593.75,395.8438,583.75,399.8438,593.75,403.8438,589.75,399.8438" style="stroke:#181818;stroke-width:1.0;"></polygon><line style="stroke:#181818;stroke-width:1.0;" x1="571.75" x2="571.75" y1="647.7188" y2="667.7188"></line><polygon fill="#181818" points="567.75,657.7188,571.75,667.7188,575.75,657.7188,571.75,661.7188" style="stroke:#181818;stroke-width:1.0;"></polygon><line style="stroke:#181818;stroke-width:1.0;" x1="571.75" x2="571.75" y1="367.8438" y2="387.8438"></line><polygon fill="#181818" points="567.75,377.8438,571.75,387.8438,575.75,377.8438,571.75,381.8438" style="stroke:#181818;stroke-width:1.0;"></polygon><line style="stroke:#181818;stroke-width:1.0;" x1="313.125" x2="144.5" y1="311.875" y2="311.875"></line><line style="stroke:#181818;stroke-width:1.0;" x1="144.5" x2="144.5" y1="311.875" y2="333.875"></line><polygon fill="#181818" points="140.5,323.875,144.5,333.875,148.5,323.875,144.5,327.875" style="stroke:#181818;stroke-width:1.0;"></polygon><line style="stroke:#181818;stroke-width:1.0;" x1="403.125" x2="571.75" y1="311.875" y2="311.875"></line><line style="stroke:#181818;stroke-width:1.0;" x1="571.75" x2="571.75" y1="311.875" y2="333.875"></line><polygon fill="#181818" points="567.75,323.875,571.75,333.875,575.75,323.875,571.75,327.875" style="stroke:#181818;stroke-width:1.0;"></polygon><line style="stroke:#181818;stroke-width:1.0;" x1="144.5" x2="144.5" y1="421.8125" y2="709.7188"></line><line style="stroke:#181818;stroke-width:1.0;" x1="144.5" x2="346.125" y1="709.7188" y2="709.7188"></line><polygon fill="#181818" points="336.125,705.7188,346.125,709.7188,336.125,713.7188,340.125,709.7188" style="stroke:#181818;stroke-width:1.0;"></polygon><line style="stroke:#181818;stroke-width:1.0;" x1="571.75" x2="571.75" y1="691.7188" y2="709.7188"></line><line style="stroke:#181818;stroke-width:1.0;" x1="571.75" x2="370.125" y1="709.7188" y2="709.7188"></line><polygon fill="#181818" points="380.125,705.7188,370.125,709.7188,380.125,713.7188,376.125,709.7188" style="stroke:#181818;stroke-width:1.0;"></polygon><line style="stroke:#181818;stroke-width:1.0;" x1="358.125" x2="358.125" y1="279.875" y2="299.875"></line><polygon fill="#181818" points="354.125,289.875,358.125,299.875,362.125,289.875,358.125,293.875" style="stroke:#181818;stroke-width:1.0;"></polygon><line style="stroke:#181818;stroke-width:1.0;" x1="622.0625" x2="358.125" y1="115.9688" y2="115.9688"></line><line style="stroke:#181818;stroke-width:1.0;" x1="358.125" x2="358.125" y1="115.9688" y2="137.9688"></line><polygon fill="#181818" points="354.125,127.9688,358.125,137.9688,362.125,127.9688,358.125,131.9688" style="stroke:#181818;stroke-width:1.0;"></polygon><line style="stroke:#181818;stroke-width:1.0;" x1="716.0625" x2="944" y1="115.9688" y2="115.9688"></line><line style="stroke:#181818;stroke-width:1.0;" x1="944" x2="944" y1="115.9688" y2="137.9688"></line><polygon fill="#181818" points="940,127.9688,944,137.9688,948,127.9688,944,131.9688" style="stroke:#181818;stroke-width:1.0;"></polygon><line style="stroke:#181818;stroke-width:1.0;" x1="358.125" x2="358.125" y1="721.7188" y2="739.7188"></line><line style="stroke:#181818;stroke-width:1.0;" x1="358.125" x2="657.0625" y1="739.7188" y2="739.7188"></line><polygon fill="#181818" points="647.0625,735.7188,657.0625,739.7188,647.0625,743.7188,651.0625,739.7188" style="stroke:#181818;stroke-width:1.0;"></polygon><line style="stroke:#181818;stroke-width:1.0;" x1="944" x2="944" y1="171.9375" y2="739.7188"></line><line style="stroke:#181818;stroke-width:1.0;" x1="944" x2="681.0625" y1="739.7188" y2="739.7188"></line><polygon fill="#181818" points="691.0625,735.7188,681.0625,739.7188,691.0625,743.7188,687.0625,739.7188" style="stroke:#181818;stroke-width:1.0;"></polygon><line style="stroke:#181818;stroke-width:1.0;" x1="669.0625" x2="669.0625" y1="83.9688" y2="103.9688"></line><polygon fill="#181818" points="665.0625,93.9688,669.0625,103.9688,673.0625,93.9688,669.0625,97.9688" style="stroke:#181818;stroke-width:1.0;"></polygon><line style="stroke:#181818;stroke-width:1.0;" x1="669.0625" x2="669.0625" y1="751.7188" y2="771.7188"></line><polygon fill="#181818" points="665.0625,761.7188,669.0625,771.7188,673.0625,761.7188,669.0625,765.7188" style="stroke:#181818;stroke-width:1.0;"></polygon><!--SRC=[bP1BRiCm34JtFWMNzg8NI1OzH3zxDg9YeleO99lKjuzbkwqI1733bI3DSEP93SMQtPkIW5AWWoaOwYTO1d9i-uOzjA_bXhvPJPyxi9uIj2Dfrm3iNaOrYY1amdIYrUx8a8E2bnp1eU47AkqhlMCT0ewht6U9S6RhOH1wyXm2kPyTisik6BDZppSHvRbqVCV03ZWDNtRRyIzLiJHSzxXVqhhWdOg7d3nBHEES898g7cSf1ILeK-xksqWaIws7wPS6GfkFcr1bDi4UXdi8iCmrv7z19r-QUbJGSEuvq3KEiCAoUL7NMLifYqCj3nS0]--></g></svg>