<!--?xml version="1.0" encoding="us-ascii" standalone="no"?--><svg xmlns="http://www.w3.org/2000/svg" xmlns:xlink="http://www.w3.org/1999/xlink" contentstyletype="text/css" height="768px" preserveAspectRatio="none" style="width:994px;height:768px;background:#FFFFFF;" version="1.1" viewBox="0 0 994 768" width="994px" zoomAndPan="magnify"><defs></defs><g><!--class User--><g id="elem_User"><rect codeline="1" fill="#F1F1F1" height="145.7813" id="User" rx="2.5" ry="2.5" style="stroke:#181818;stroke-width:0.5;" width="290" x="272" y="7"></rect><ellipse cx="397.25" cy="23" fill="#ADD1B2" rx="11" ry="11" style="stroke:#181818;stroke-width:1.0;"></ellipse><path d="M399.5938,18.6719 C398.6563,18.2344 398.0625,18.0938 397.1875,18.0938 C394.5625,18.0938 392.5625,20.1719 392.5625,22.8906 L392.5625,24.0156 C392.5625,26.5938 394.6719,28.4844 397.5625,28.4844 C398.7813,28.4844 399.9375,28.1875 400.6875,27.6406 C401.2656,27.2344 401.5938,26.7813 401.5938,26.3906 C401.5938,25.9375 401.2031,25.5469 400.7344,25.5469 C400.5156,25.5469 400.3125,25.625 400.125,25.8125 C399.6719,26.2969 399.6719,26.2969 399.4844,26.3906 C399.0625,26.6563 398.375,26.7813 397.6094,26.7813 C395.5625,26.7813 394.2656,25.6875 394.2656,23.9844 L394.2656,22.8906 C394.2656,21.1094 395.5156,19.7969 397.25,19.7969 C397.8281,19.7969 398.4375,19.9531 398.9063,20.2031 C399.3906,20.4844 399.5625,20.7031 399.6563,21.1094 C399.7188,21.5156 399.75,21.6406 399.8906,21.7656 C400.0313,21.9063 400.2656,22.0156 400.4844,22.0156 C400.75,22.0156 401.0156,21.875 401.1875,21.6563 C401.2969,21.5 401.3281,21.3125 401.3281,20.8906 L401.3281,19.4688 C401.3281,19.0313 401.3125,18.9063 401.2188,18.75 C401.0625,18.4844 400.7813,18.3438 400.4844,18.3438 C400.1875,18.3438 399.9844,18.4375 399.7656,18.75 L399.5938,18.6719 Z " fill="#000000"></path><text fill="#000000" font-family="sans-serif" font-size="14" lengthAdjust="spacing" textLength="31" x="417.75" y="27.8467">User</text><line style="stroke:#181818;stroke-width:0.5;" x1="273" x2="561" y1="39" y2="39"></line><rect fill="none" height="6" style="stroke:#C82930;stroke-width:1.0;" width="6" x="280" y="49.6484"></rect><text fill="#000000" font-family="sans-serif" font-size="14" lengthAdjust="spacing" textLength="125" x="292" y="55.9951">username : string</text><rect fill="none" height="6" style="stroke:#C82930;stroke-width:1.0;" width="6" x="280" y="65.9453"></rect><text fill="#000000" font-family="sans-serif" font-size="14" lengthAdjust="spacing" textLength="122" x="292" y="72.292">password : string</text><line style="stroke:#181818;stroke-width:0.5;" x1="273" x2="561" y1="79.5938" y2="79.5938"></line><ellipse cx="283" cy="93.2422" fill="#84BE84" rx="3" ry="3" style="stroke:#038048;stroke-width:1.0;"></ellipse><text fill="#000000" font-family="sans-serif" font-size="14" lengthAdjust="spacing" textLength="264" x="292" y="96.5889">setUsername(username: string): void</text><ellipse cx="283" cy="109.5391" fill="#84BE84" rx="3" ry="3" style="stroke:#038048;stroke-width:1.0;"></ellipse><text fill="#000000" font-family="sans-serif" font-size="14" lengthAdjust="spacing" textLength="256" x="292" y="112.8857">setPassword(password: string): void</text><ellipse cx="283" cy="125.8359" fill="#84BE84" rx="3" ry="3" style="stroke:#038048;stroke-width:1.0;"></ellipse><text fill="#000000" font-family="sans-serif" font-size="14" lengthAdjust="spacing" textLength="157" x="292" y="129.1826">getUsername(): string</text><ellipse cx="283" cy="142.1328" fill="#84BE84" rx="3" ry="3" style="stroke:#038048;stroke-width:1.0;"></ellipse><text fill="#000000" font-family="sans-serif" font-size="14" lengthAdjust="spacing" textLength="152" x="292" y="145.4795">getPassword(): string</text></g><!--class Task--><g id="elem_Task"><rect codeline="10" fill="#F1F1F1" height="292.4531" id="Task" rx="2.5" ry="2.5" style="stroke:#181818;stroke-width:0.5;" width="315" x="672.5" y="230"></rect><ellipse cx="809.25" cy="246" fill="#ADD1B2" rx="11" ry="11" style="stroke:#181818;stroke-width:1.0;"></ellipse><path d="M811.5938,241.6719 C810.6563,241.2344 810.0625,241.0938 809.1875,241.0938 C806.5625,241.0938 804.5625,243.1719 804.5625,245.8906 L804.5625,247.0156 C804.5625,249.5938 806.6719,251.4844 809.5625,251.4844 C810.7813,251.4844 811.9375,251.1875 812.6875,250.6406 C813.2656,250.2344 813.5938,249.7813 813.5938,249.3906 C813.5938,248.9375 813.2031,248.5469 812.7344,248.5469 C812.5156,248.5469 812.3125,248.625 812.125,248.8125 C811.6719,249.2969 811.6719,249.2969 811.4844,249.3906 C811.0625,249.6563 810.375,249.7813 809.6094,249.7813 C807.5625,249.7813 806.2656,248.6875 806.2656,246.9844 L806.2656,245.8906 C806.2656,244.1094 807.5156,242.7969 809.25,242.7969 C809.8281,242.7969 810.4375,242.9531 810.9063,243.2031 C811.3906,243.4844 811.5625,243.7031 811.6563,244.1094 C811.7188,244.5156 811.75,244.6406 811.8906,244.7656 C812.0313,244.9063 812.2656,245.0156 812.4844,245.0156 C812.75,245.0156 813.0156,244.875 813.1875,244.6563 C813.2969,244.5 813.3281,244.3125 813.3281,243.8906 L813.3281,242.4688 C813.3281,242.0313 813.3125,241.9063 813.2188,241.75 C813.0625,241.4844 812.7813,241.3438 812.4844,241.3438 C812.1875,241.3438 811.9844,241.4375 811.7656,241.75 L811.5938,241.6719 Z " fill="#000000"></path><text fill="#000000" font-family="sans-serif" font-size="14" lengthAdjust="spacing" textLength="33" x="829.75" y="250.8467">Task</text><line style="stroke:#181818;stroke-width:0.5;" x1="673.5" x2="986.5" y1="262" y2="262"></line><rect fill="none" height="6" style="stroke:#C82930;stroke-width:1.0;" width="6" x="680.5" y="272.6484"></rect><text fill="#000000" font-family="sans-serif" font-size="14" lengthAdjust="spacing" textLength="46" x="692.5" y="278.9951">id : int</text><rect fill="none" height="6" style="stroke:#C82930;stroke-width:1.0;" width="6" x="680.5" y="288.9453"></rect><text fill="#000000" font-family="sans-serif" font-size="14" lengthAdjust="spacing" textLength="86" x="692.5" y="295.292">title : string</text><rect fill="none" height="6" style="stroke:#C82930;stroke-width:1.0;" width="6" x="680.5" y="305.2422"></rect><text fill="#000000" font-family="sans-serif" font-size="14" lengthAdjust="spacing" textLength="137" x="692.5" y="311.5889">description : string</text><rect fill="none" height="6" style="stroke:#C82930;stroke-width:1.0;" width="6" x="680.5" y="321.5391"></rect><text fill="#000000" font-family="sans-serif" font-size="14" lengthAdjust="spacing" textLength="93" x="692.5" y="327.8857">state : string</text><rect fill="none" height="6" style="stroke:#C82930;stroke-width:1.0;" width="6" x="680.5" y="337.8359"></rect><text fill="#000000" font-family="sans-serif" font-size="14" lengthAdjust="spacing" textLength="87" x="692.5" y="344.1826">priority : int</text><line style="stroke:#181818;stroke-width:0.5;" x1="673.5" x2="986.5" y1="351.4844" y2="351.4844"></line><ellipse cx="683.5" cy="365.1328" fill="#84BE84" rx="3" ry="3" style="stroke:#038048;stroke-width:1.0;"></ellipse><text fill="#000000" font-family="sans-serif" font-size="14" lengthAdjust="spacing" textLength="127" x="692.5" y="368.4795">setId(id: int): void</text><ellipse cx="683.5" cy="381.4297" fill="#84BE84" rx="3" ry="3" style="stroke:#038048;stroke-width:1.0;"></ellipse><text fill="#000000" font-family="sans-serif" font-size="14" lengthAdjust="spacing" textLength="187" x="692.5" y="384.7764">setTitle(title: string): void</text><ellipse cx="683.5" cy="397.7266" fill="#84BE84" rx="3" ry="3" style="stroke:#038048;stroke-width:1.0;"></ellipse><text fill="#000000" font-family="sans-serif" font-size="14" lengthAdjust="spacing" textLength="289" x="692.5" y="401.0732">setDescription(description: string): void</text><ellipse cx="683.5" cy="414.0234" fill="#84BE84" rx="3" ry="3" style="stroke:#038048;stroke-width:1.0;"></ellipse><text fill="#000000" font-family="sans-serif" font-size="14" lengthAdjust="spacing" textLength="201" x="692.5" y="417.3701">setState(state: string): void</text><ellipse cx="683.5" cy="430.3203" fill="#84BE84" rx="3" ry="3" style="stroke:#038048;stroke-width:1.0;"></ellipse><text fill="#000000" font-family="sans-serif" font-size="14" lengthAdjust="spacing" textLength="208" x="692.5" y="433.667">setPriority(priority: int): void</text><ellipse cx="683.5" cy="446.6172" fill="#84BE84" rx="3" ry="3" style="stroke:#038048;stroke-width:1.0;"></ellipse><text fill="#000000" font-family="sans-serif" font-size="14" lengthAdjust="spacing" textLength="77" x="692.5" y="449.9639">getId(): int</text><ellipse cx="683.5" cy="462.9141" fill="#84BE84" rx="3" ry="3" style="stroke:#038048;stroke-width:1.0;"></ellipse><text fill="#000000" font-family="sans-serif" font-size="14" lengthAdjust="spacing" textLength="119" x="692.5" y="466.2607">getTitle(): string</text><ellipse cx="683.5" cy="479.2109" fill="#84BE84" rx="3" ry="3" style="stroke:#038048;stroke-width:1.0;"></ellipse><text fill="#000000" font-family="sans-serif" font-size="14" lengthAdjust="spacing" textLength="170" x="692.5" y="482.5576">getDescription(): string</text><ellipse cx="683.5" cy="495.5078" fill="#84BE84" rx="3" ry="3" style="stroke:#038048;stroke-width:1.0;"></ellipse><text fill="#000000" font-family="sans-serif" font-size="14" lengthAdjust="spacing" textLength="126" x="692.5" y="498.8545">getState(): string</text><ellipse cx="683.5" cy="511.8047" fill="#84BE84" rx="3" ry="3" style="stroke:#038048;stroke-width:1.0;"></ellipse><text fill="#000000" font-family="sans-serif" font-size="14" lengthAdjust="spacing" textLength="117" x="692.5" y="515.1514">getPriority(): int</text></g><!--class Group--><g id="elem_Group"><rect codeline="28" fill="#F1F1F1" height="145.7813" id="Group" rx="2.5" ry="2.5" style="stroke:#181818;stroke-width:0.5;" width="230" x="715" y="7"></rect><ellipse cx="803.75" cy="23" fill="#ADD1B2" rx="11" ry="11" style="stroke:#181818;stroke-width:1.0;"></ellipse><path d="M806.0938,18.6719 C805.1563,18.2344 804.5625,18.0938 803.6875,18.0938 C801.0625,18.0938 799.0625,20.1719 799.0625,22.8906 L799.0625,24.0156 C799.0625,26.5938 801.1719,28.4844 804.0625,28.4844 C805.2813,28.4844 806.4375,28.1875 807.1875,27.6406 C807.7656,27.2344 808.0938,26.7813 808.0938,26.3906 C808.0938,25.9375 807.7031,25.5469 807.2344,25.5469 C807.0156,25.5469 806.8125,25.625 806.625,25.8125 C806.1719,26.2969 806.1719,26.2969 805.9844,26.3906 C805.5625,26.6563 804.875,26.7813 804.1094,26.7813 C802.0625,26.7813 800.7656,25.6875 800.7656,23.9844 L800.7656,22.8906 C800.7656,21.1094 802.0156,19.7969 803.75,19.7969 C804.3281,19.7969 804.9375,19.9531 805.4063,20.2031 C805.8906,20.4844 806.0625,20.7031 806.1563,21.1094 C806.2188,21.5156 806.25,21.6406 806.3906,21.7656 C806.5313,21.9063 806.7656,22.0156 806.9844,22.0156 C807.25,22.0156 807.5156,21.875 807.6875,21.6563 C807.7969,21.5 807.8281,21.3125 807.8281,20.8906 L807.8281,19.4688 C807.8281,19.0313 807.8125,18.9063 807.7188,18.75 C807.5625,18.4844 807.2813,18.3438 806.9844,18.3438 C806.6875,18.3438 806.4844,18.4375 806.2656,18.75 L806.0938,18.6719 Z " fill="#000000"></path><text fill="#000000" font-family="sans-serif" font-size="14" lengthAdjust="spacing" textLength="44" x="824.25" y="27.8467">Group</text><line style="stroke:#181818;stroke-width:0.5;" x1="716" x2="944" y1="39" y2="39"></line><rect fill="none" height="6" style="stroke:#C82930;stroke-width:1.0;" width="6" x="723" y="49.6484"></rect><text fill="#000000" font-family="sans-serif" font-size="14" lengthAdjust="spacing" textLength="46" x="735" y="55.9951">id : int</text><rect fill="none" height="6" style="stroke:#C82930;stroke-width:1.0;" width="6" x="723" y="65.9453"></rect><text fill="#000000" font-family="sans-serif" font-size="14" lengthAdjust="spacing" textLength="95" x="735" y="72.292">name : string</text><line style="stroke:#181818;stroke-width:0.5;" x1="716" x2="944" y1="79.5938" y2="79.5938"></line><ellipse cx="726" cy="93.2422" fill="#84BE84" rx="3" ry="3" style="stroke:#038048;stroke-width:1.0;"></ellipse><text fill="#000000" font-family="sans-serif" font-size="14" lengthAdjust="spacing" textLength="127" x="735" y="96.5889">setId(id: int): void</text><ellipse cx="726" cy="109.5391" fill="#84BE84" rx="3" ry="3" style="stroke:#038048;stroke-width:1.0;"></ellipse><text fill="#000000" font-family="sans-serif" font-size="14" lengthAdjust="spacing" textLength="204" x="735" y="112.8857">setName(name: string): void</text><ellipse cx="726" cy="125.8359" fill="#84BE84" rx="3" ry="3" style="stroke:#038048;stroke-width:1.0;"></ellipse><text fill="#000000" font-family="sans-serif" font-size="14" lengthAdjust="spacing" textLength="77" x="735" y="129.1826">getId(): int</text><ellipse cx="726" cy="142.1328" fill="#84BE84" rx="3" ry="3" style="stroke:#038048;stroke-width:1.0;"></ellipse><text fill="#000000" font-family="sans-serif" font-size="14" lengthAdjust="spacing" textLength="127" x="735" y="145.4795">getName(): string</text></g><!--class DatabaseManager--><g id="elem_DatabaseManager"><rect codeline="37" fill="#F1F1F1" height="162.0781" id="DatabaseManager" rx="2.5" ry="2.5" style="stroke:#181818;stroke-width:0.5;" width="372" x="7" y="599"></rect><ellipse cx="124.25" cy="615" fill="#ADD1B2" rx="11" ry="11" style="stroke:#181818;stroke-width:1.0;"></ellipse><path d="M126.5938,610.6719 C125.6563,610.2344 125.0625,610.0938 124.1875,610.0938 C121.5625,610.0938 119.5625,612.1719 119.5625,614.8906 L119.5625,616.0156 C119.5625,618.5938 121.6719,620.4844 124.5625,620.4844 C125.7813,620.4844 126.9375,620.1875 127.6875,619.6406 C128.2656,619.2344 128.5938,618.7813 128.5938,618.3906 C128.5938,617.9375 128.2031,617.5469 127.7344,617.5469 C127.5156,617.5469 127.3125,617.625 127.125,617.8125 C126.6719,618.2969 126.6719,618.2969 126.4844,618.3906 C126.0625,618.6563 125.375,618.7813 124.6094,618.7813 C122.5625,618.7813 121.2656,617.6875 121.2656,615.9844 L121.2656,614.8906 C121.2656,613.1094 122.5156,611.7969 124.25,611.7969 C124.8281,611.7969 125.4375,611.9531 125.9063,612.2031 C126.3906,612.4844 126.5625,612.7031 126.6563,613.1094 C126.7188,613.5156 126.75,613.6406 126.8906,613.7656 C127.0313,613.9063 127.2656,614.0156 127.4844,614.0156 C127.75,614.0156 128.0156,613.875 128.1875,613.6563 C128.2969,613.5 128.3281,613.3125 128.3281,612.8906 L128.3281,611.4688 C128.3281,611.0313 128.3125,610.9063 128.2188,610.75 C128.0625,610.4844 127.7813,610.3438 127.4844,610.3438 C127.1875,610.3438 126.9844,610.4375 126.7656,610.75 L126.5938,610.6719 Z " fill="#000000"></path><text fill="#000000" font-family="sans-serif" font-size="14" lengthAdjust="spacing" textLength="129" x="144.75" y="619.8467">DatabaseManager</text><line style="stroke:#181818;stroke-width:0.5;" x1="8" x2="378" y1="631" y2="631"></line><line style="stroke:#181818;stroke-width:0.5;" x1="8" x2="378" y1="639" y2="639"></line><ellipse cx="18" cy="652.6484" fill="#84BE84" rx="3" ry="3" style="stroke:#038048;stroke-width:1.0;"></ellipse><text fill="#000000" font-family="sans-serif" font-size="14" lengthAdjust="spacing" textLength="176" x="27" y="655.9951">addUser(user: User): void</text><ellipse cx="18" cy="668.9453" fill="#84BE84" rx="3" ry="3" style="stroke:#038048;stroke-width:1.0;"></ellipse><text fill="#000000" font-family="sans-serif" font-size="14" lengthAdjust="spacing" textLength="205" x="27" y="672.292">removeUser(user: User): void</text><ellipse cx="18" cy="685.2422" fill="#84BE84" rx="3" ry="3" style="stroke:#038048;stroke-width:1.0;"></ellipse><text fill="#000000" font-family="sans-serif" font-size="14" lengthAdjust="spacing" textLength="181" x="27" y="688.5889">addTask(task: Task): void</text><ellipse cx="18" cy="701.5391" fill="#84BE84" rx="3" ry="3" style="stroke:#038048;stroke-width:1.0;"></ellipse><text fill="#000000" font-family="sans-serif" font-size="14" lengthAdjust="spacing" textLength="210" x="27" y="704.8857">removeTask(task: Task): void</text><ellipse cx="18" cy="717.8359" fill="#84BE84" rx="3" ry="3" style="stroke:#038048;stroke-width:1.0;"></ellipse><text fill="#000000" font-family="sans-serif" font-size="14" lengthAdjust="spacing" textLength="184" x="27" y="721.1826">editTask(task: Task): void</text><ellipse cx="18" cy="734.1328" fill="#84BE84" rx="3" ry="3" style="stroke:#038048;stroke-width:1.0;"></ellipse><text fill="#000000" font-family="sans-serif" font-size="14" lengthAdjust="spacing" textLength="344" x="27" y="737.4795">changeTaskState(task: Task, state: string): void</text><ellipse cx="18" cy="750.4297" fill="#84BE84" rx="3" ry="3" style="stroke:#038048;stroke-width:1.0;"></ellipse><text fill="#000000" font-family="sans-serif" font-size="14" lengthAdjust="spacing" textLength="346" x="27" y="753.7764">addTaskToGroup(task: Task, group: Group): void</text></g><!--class TaskManager--><g id="elem_TaskManager"><rect codeline="47" fill="#F1F1F1" height="129.4844" id="TaskManager" rx="2.5" ry="2.5" style="stroke:#181818;stroke-width:0.5;" width="441" x="196.5" y="311.5"></rect><ellipse cx="365.75" cy="327.5" fill="#ADD1B2" rx="11" ry="11" style="stroke:#181818;stroke-width:1.0;"></ellipse><path d="M368.0938,323.1719 C367.1563,322.7344 366.5625,322.5938 365.6875,322.5938 C363.0625,322.5938 361.0625,324.6719 361.0625,327.3906 L361.0625,328.5156 C361.0625,331.0938 363.1719,332.9844 366.0625,332.9844 C367.2813,332.9844 368.4375,332.6875 369.1875,332.1406 C369.7656,331.7344 370.0938,331.2813 370.0938,330.8906 C370.0938,330.4375 369.7031,330.0469 369.2344,330.0469 C369.0156,330.0469 368.8125,330.125 368.625,330.3125 C368.1719,330.7969 368.1719,330.7969 367.9844,330.8906 C367.5625,331.1563 366.875,331.2813 366.1094,331.2813 C364.0625,331.2813 362.7656,330.1875 362.7656,328.4844 L362.7656,327.3906 C362.7656,325.6094 364.0156,324.2969 365.75,324.2969 C366.3281,324.2969 366.9375,324.4531 367.4063,324.7031 C367.8906,324.9844 368.0625,325.2031 368.1563,325.6094 C368.2188,326.0156 368.25,326.1406 368.3906,326.2656 C368.5313,326.4063 368.7656,326.5156 368.9844,326.5156 C369.25,326.5156 369.5156,326.375 369.6875,326.1563 C369.7969,326 369.8281,325.8125 369.8281,325.3906 L369.8281,323.9688 C369.8281,323.5313 369.8125,323.4063 369.7188,323.25 C369.5625,322.9844 369.2813,322.8438 368.9844,322.8438 C368.6875,322.8438 368.4844,322.9375 368.2656,323.25 L368.0938,323.1719 Z " fill="#000000"></path><text fill="#000000" font-family="sans-serif" font-size="14" lengthAdjust="spacing" textLength="94" x="386.25" y="332.3467">TaskManager</text><line style="stroke:#181818;stroke-width:0.5;" x1="197.5" x2="636.5" y1="343.5" y2="343.5"></line><line style="stroke:#181818;stroke-width:0.5;" x1="197.5" x2="636.5" y1="351.5" y2="351.5"></line><ellipse cx="207.5" cy="365.1484" fill="#84BE84" rx="3" ry="3" style="stroke:#038048;stroke-width:1.0;"></ellipse><text fill="#000000" font-family="sans-serif" font-size="14" lengthAdjust="spacing" textLength="334" x="216.5" y="368.4951">addTask(title: string, description: string): Task</text><ellipse cx="207.5" cy="381.4453" fill="#84BE84" rx="3" ry="3" style="stroke:#038048;stroke-width:1.0;"></ellipse><text fill="#000000" font-family="sans-serif" font-size="14" lengthAdjust="spacing" textLength="210" x="216.5" y="384.792">removeTask(task: Task): void</text><ellipse cx="207.5" cy="397.7422" fill="#84BE84" rx="3" ry="3" style="stroke:#038048;stroke-width:1.0;"></ellipse><text fill="#000000" font-family="sans-serif" font-size="14" lengthAdjust="spacing" textLength="415" x="216.5" y="401.0889">editTask(task: Task, title: string, description: string): void</text><ellipse cx="207.5" cy="414.0391" fill="#84BE84" rx="3" ry="3" style="stroke:#038048;stroke-width:1.0;"></ellipse><text fill="#000000" font-family="sans-serif" font-size="14" lengthAdjust="spacing" textLength="344" x="216.5" y="417.3857">changeTaskState(task: Task, state: string): void</text><ellipse cx="207.5" cy="430.3359" fill="#84BE84" rx="3" ry="3" style="stroke:#038048;stroke-width:1.0;"></ellipse><text fill="#000000" font-family="sans-serif" font-size="14" lengthAdjust="spacing" textLength="346" x="216.5" y="433.6826">addTaskToGroup(task: Task, group: Group): void</text></g><!--link User to TaskManager--><g id="link_User_TaskManager"><path codeline="55" d="M417,153.297 C417,201.753 417,264.958 417,311.479 " fill="none" id="User-TaskManager" style="stroke:#181818;stroke-width:1.0;"></path><text fill="#000000" font-family="sans-serif" font-size="13" lengthAdjust="spacing" textLength="30" x="418" y="196.0669">uses</text><text fill="#000000" font-family="sans-serif" font-size="13" lengthAdjust="spacing" textLength="8" x="408.6313" y="172.8286">1</text><text fill="#000000" font-family="sans-serif" font-size="13" lengthAdjust="spacing" textLength="8" x="408.5625" y="300.6494">1</text></g><!--link User to DatabaseManager--><g id="link_User_DatabaseManager"><path codeline="57" d="M271.987,116.699 C213.303,139.044 151.392,174.518 117,230 C46.3962,343.899 102.6048,503.807 148.65,598.867 " fill="none" id="User-DatabaseManager" style="stroke:#181818;stroke-width:1.0;"></path><text fill="#000000" font-family="sans-serif" font-size="13" lengthAdjust="spacing" textLength="60" x="118" y="380.5669">manages</text><text fill="#000000" font-family="sans-serif" font-size="13" lengthAdjust="spacing" textLength="8" x="255.8379" y="115.3723">1</text><text fill="#000000" font-family="sans-serif" font-size="13" lengthAdjust="spacing" textLength="8" x="136.3438" y="588.0425">1</text></g><!--link TaskManager to DatabaseManager--><g id="link_TaskManager_DatabaseManager"><path codeline="58" d="M369.769,440.677 C335.562,486.796 289.073,549.473 252.356,598.976 " fill="none" id="TaskManager-DatabaseManager" style="stroke:#181818;stroke-width:1.0;"></path><text fill="#000000" font-family="sans-serif" font-size="13" lengthAdjust="spacing" textLength="30" x="286" y="565.0669">uses</text><text fill="#000000" font-family="sans-serif" font-size="13" lengthAdjust="spacing" textLength="8" x="355.8454" y="461.069">1</text><text fill="#000000" font-family="sans-serif" font-size="13" lengthAdjust="spacing" textLength="8" x="249.4591" y="587.8846">1</text></g><!--link User to Task--><g id="link_User_Task"><path codeline="60" d="M538.897,153.005 C576.792,176.527 618.251,203.45 655,230 C660.757,234.159 666.569,238.45 672.401,242.834 " fill="none" id="User-Task" style="stroke:#181818;stroke-width:1.0;"></path><text fill="#000000" font-family="sans-serif" font-size="13" lengthAdjust="spacing" textLength="23" x="611" y="196.0669">has</text><text fill="#000000" font-family="sans-serif" font-size="13" lengthAdjust="spacing" textLength="8" x="542.1341" y="172.7618">1</text><text fill="#000000" font-family="sans-serif" font-size="13" lengthAdjust="spacing" textLength="23" x="641.7387" y="233.5197">0..*</text></g><!--link Group to Task--><g id="link_Group_Task"><path codeline="61" d="M830,153.297 C830,176.59 830,203.291 830,229.909 " fill="none" id="Group-Task" style="stroke:#181818;stroke-width:1.0;"></path><text fill="#000000" font-family="sans-serif" font-size="13" lengthAdjust="spacing" textLength="54" x="831" y="196.0669">contains</text><text fill="#000000" font-family="sans-serif" font-size="13" lengthAdjust="spacing" textLength="8" x="821.6313" y="172.8286">1</text><text fill="#000000" font-family="sans-serif" font-size="13" lengthAdjust="spacing" textLength="23" x="806.407" y="219.0481">0..*</text></g><!--SRC=[lLHDJyCm3BttLrWxPUn3SErv4kB0XCJs0q8JPH5RCYNP44ByTnetMTEchH07Blsmd-rd-oNLaLeBUyiDV1K0AxZKdugUE9HWdP5AeFLSepwqOQbr0PQxVO2J61S1ynAkMhA8Uma9ICmqX1D9ldcdaaWoj9xlegYG_uxQzy1VUevIEVnnqXrxdJ1kAoFFJchLTLX7NRzh8xMHxlEM4LjvOaGojFHwtFbg16kEJ67J5YS9aH7qgsT4aDVOL0D14fbcj0JodRSDYCWp6t1ABdCsNFAbH0AXmcqZZqPVpaChwMjhUgHRBuKnMGtrjkrgvyPdGnrzevO_KqL54Fi2A6DUS2ZU4az1cj_maxxo2K0TxfL7NFqeKOHv-0I0C-actDM1Ae7npV1Rr196HH4exJGke1CZlALiDXD3EYSecqr3BjNp4ePbwv5_Rde9lwhntuF1It7sC8FL2b_fY4f_JzeSqvTP2IVyiaKQFHamaFX-lRvhwjV-0xL5Sxe6tPLMZafbVm00]--></g></svg>