<!--?xml version="1.0" encoding="us-ascii" standalone="no"?--><svg xmlns="http://www.w3.org/2000/svg" xmlns:xlink="http://www.w3.org/1999/xlink" contentstyletype="text/css" height="826px" preserveAspectRatio="none" style="width:886px;height:826px;background:#FFFFFF;" version="1.1" viewBox="0 0 886 826" width="886px" zoomAndPan="magnify"><defs></defs><g><!--class User--><g id="elem_User"><rect codeline="1" fill="#F1F1F1" height="145.7813" id="User" rx="2.5" ry="2.5" style="stroke:#181818;stroke-width:0.5;" width="292" x="98.5" y="148"></rect><ellipse cx="224.75" cy="164" fill="#ADD1B2" rx="11" ry="11" style="stroke:#181818;stroke-width:1.0;"></ellipse><path d="M227.0938,159.6719 C226.1563,159.2344 225.5625,159.0938 224.6875,159.0938 C222.0625,159.0938 220.0625,161.1719 220.0625,163.8906 L220.0625,165.0156 C220.0625,167.5938 222.1719,169.4844 225.0625,169.4844 C226.2813,169.4844 227.4375,169.1875 228.1875,168.6406 C228.7656,168.2344 229.0938,167.7813 229.0938,167.3906 C229.0938,166.9375 228.7031,166.5469 228.2344,166.5469 C228.0156,166.5469 227.8125,166.625 227.625,166.8125 C227.1719,167.2969 227.1719,167.2969 226.9844,167.3906 C226.5625,167.6563 225.875,167.7813 225.1094,167.7813 C223.0625,167.7813 221.7656,166.6875 221.7656,164.9844 L221.7656,163.8906 C221.7656,162.1094 223.0156,160.7969 224.75,160.7969 C225.3281,160.7969 225.9375,160.9531 226.4063,161.2031 C226.8906,161.4844 227.0625,161.7031 227.1563,162.1094 C227.2188,162.5156 227.25,162.6406 227.3906,162.7656 C227.5313,162.9063 227.7656,163.0156 227.9844,163.0156 C228.25,163.0156 228.5156,162.875 228.6875,162.6563 C228.7969,162.5 228.8281,162.3125 228.8281,161.8906 L228.8281,160.4688 C228.8281,160.0313 228.8125,159.9063 228.7188,159.75 C228.5625,159.4844 228.2813,159.3438 227.9844,159.3438 C227.6875,159.3438 227.4844,159.4375 227.2656,159.75 L227.0938,159.6719 Z " fill="#000000"></path><text fill="#000000" font-family="sans-serif" font-size="14" lengthAdjust="spacing" textLength="31" x="245.25" y="168.8467">User</text><line style="stroke:#181818;stroke-width:0.5;" x1="99.5" x2="389.5" y1="180" y2="180"></line><rect fill="none" height="6" style="stroke:#C82930;stroke-width:1.0;" width="6" x="106.5" y="190.6484"></rect><text fill="#000000" font-family="sans-serif" font-size="14" lengthAdjust="spacing" textLength="123" x="118.5" y="196.9951">username: String</text><rect fill="none" height="6" style="stroke:#C82930;stroke-width:1.0;" width="6" x="106.5" y="206.9453"></rect><text fill="#000000" font-family="sans-serif" font-size="14" lengthAdjust="spacing" textLength="120" x="118.5" y="213.292">password: String</text><line style="stroke:#181818;stroke-width:0.5;" x1="99.5" x2="389.5" y1="220.5938" y2="220.5938"></line><ellipse cx="109.5" cy="234.2422" fill="#84BE84" rx="3" ry="3" style="stroke:#038048;stroke-width:1.0;"></ellipse><text fill="#000000" font-family="sans-serif" font-size="14" lengthAdjust="spacing" textLength="159" x="118.5" y="237.5889">getUsername(): String</text><ellipse cx="109.5" cy="250.5391" fill="#84BE84" rx="3" ry="3" style="stroke:#038048;stroke-width:1.0;"></ellipse><text fill="#000000" font-family="sans-serif" font-size="14" lengthAdjust="spacing" textLength="154" x="118.5" y="253.8857">getPassword(): String</text><ellipse cx="109.5" cy="266.8359" fill="#84BE84" rx="3" ry="3" style="stroke:#038048;stroke-width:1.0;"></ellipse><text fill="#000000" font-family="sans-serif" font-size="14" lengthAdjust="spacing" textLength="266" x="118.5" y="270.1826">setUsername(username: String): void</text><ellipse cx="109.5" cy="283.1328" fill="#84BE84" rx="3" ry="3" style="stroke:#038048;stroke-width:1.0;"></ellipse><text fill="#000000" font-family="sans-serif" font-size="14" lengthAdjust="spacing" textLength="258" x="118.5" y="286.4795">setPassword(password: String): void</text></g><!--class Task--><g id="elem_Task"><rect codeline="10" fill="#F1F1F1" height="276.1563" id="Task" rx="2.5" ry="2.5" style="stroke:#181818;stroke-width:0.5;" width="383" x="287" y="354"></rect><ellipse cx="457.75" cy="370" fill="#ADD1B2" rx="11" ry="11" style="stroke:#181818;stroke-width:1.0;"></ellipse><path d="M460.0938,365.6719 C459.1563,365.2344 458.5625,365.0938 457.6875,365.0938 C455.0625,365.0938 453.0625,367.1719 453.0625,369.8906 L453.0625,371.0156 C453.0625,373.5938 455.1719,375.4844 458.0625,375.4844 C459.2813,375.4844 460.4375,375.1875 461.1875,374.6406 C461.7656,374.2344 462.0938,373.7813 462.0938,373.3906 C462.0938,372.9375 461.7031,372.5469 461.2344,372.5469 C461.0156,372.5469 460.8125,372.625 460.625,372.8125 C460.1719,373.2969 460.1719,373.2969 459.9844,373.3906 C459.5625,373.6563 458.875,373.7813 458.1094,373.7813 C456.0625,373.7813 454.7656,372.6875 454.7656,370.9844 L454.7656,369.8906 C454.7656,368.1094 456.0156,366.7969 457.75,366.7969 C458.3281,366.7969 458.9375,366.9531 459.4063,367.2031 C459.8906,367.4844 460.0625,367.7031 460.1563,368.1094 C460.2188,368.5156 460.25,368.6406 460.3906,368.7656 C460.5313,368.9063 460.7656,369.0156 460.9844,369.0156 C461.25,369.0156 461.5156,368.875 461.6875,368.6563 C461.7969,368.5 461.8281,368.3125 461.8281,367.8906 L461.8281,366.4688 C461.8281,366.0313 461.8125,365.9063 461.7188,365.75 C461.5625,365.4844 461.2813,365.3438 460.9844,365.3438 C460.6875,365.3438 460.4844,365.4375 460.2656,365.75 L460.0938,365.6719 Z " fill="#000000"></path><text fill="#000000" font-family="sans-serif" font-size="14" lengthAdjust="spacing" textLength="33" x="478.25" y="374.8467">Task</text><line style="stroke:#181818;stroke-width:0.5;" x1="288" x2="669" y1="386" y2="386"></line><rect fill="none" height="6" style="stroke:#C82930;stroke-width:1.0;" width="6" x="295" y="396.6484"></rect><text fill="#000000" font-family="sans-serif" font-size="14" lengthAdjust="spacing" textLength="73" x="307" y="402.9951">taskId: int</text><rect fill="none" height="6" style="stroke:#C82930;stroke-width:1.0;" width="6" x="295" y="412.9453"></rect><text fill="#000000" font-family="sans-serif" font-size="14" lengthAdjust="spacing" textLength="125" x="307" y="419.292">taskName: String</text><rect fill="none" height="6" style="stroke:#C82930;stroke-width:1.0;" width="6" x="295" y="429.2422"></rect><text fill="#000000" font-family="sans-serif" font-size="14" lengthAdjust="spacing" textLength="168" x="307" y="435.5889">taskDescription: String</text><rect fill="none" height="6" style="stroke:#C82930;stroke-width:1.0;" width="6" x="295" y="445.5391"></rect><text fill="#000000" font-family="sans-serif" font-size="14" lengthAdjust="spacing" textLength="124" x="307" y="451.8857">taskState: String</text><rect fill="none" height="6" style="stroke:#C82930;stroke-width:1.0;" width="6" x="295" y="461.8359"></rect><text fill="#000000" font-family="sans-serif" font-size="14" lengthAdjust="spacing" textLength="84" x="307" y="468.1826">groupId: int</text><line style="stroke:#181818;stroke-width:0.5;" x1="288" x2="669" y1="475.4844" y2="475.4844"></line><ellipse cx="298" cy="489.1328" fill="#84BE84" rx="3" ry="3" style="stroke:#038048;stroke-width:1.0;"></ellipse><text fill="#000000" font-family="sans-serif" font-size="14" lengthAdjust="spacing" textLength="110" x="307" y="492.4795">getTaskId(): int</text><ellipse cx="298" cy="505.4297" fill="#84BE84" rx="3" ry="3" style="stroke:#038048;stroke-width:1.0;"></ellipse><text fill="#000000" font-family="sans-serif" font-size="14" lengthAdjust="spacing" textLength="162" x="307" y="508.7764">getTaskName(): String</text><ellipse cx="298" cy="521.7266" fill="#84BE84" rx="3" ry="3" style="stroke:#038048;stroke-width:1.0;"></ellipse><text fill="#000000" font-family="sans-serif" font-size="14" lengthAdjust="spacing" textLength="205" x="307" y="525.0732">getTaskDescription(): String</text><ellipse cx="298" cy="538.0234" fill="#84BE84" rx="3" ry="3" style="stroke:#038048;stroke-width:1.0;"></ellipse><text fill="#000000" font-family="sans-serif" font-size="14" lengthAdjust="spacing" textLength="161" x="307" y="541.3701">getTaskState(): String</text><ellipse cx="298" cy="554.3203" fill="#84BE84" rx="3" ry="3" style="stroke:#038048;stroke-width:1.0;"></ellipse><text fill="#000000" font-family="sans-serif" font-size="14" lengthAdjust="spacing" textLength="121" x="307" y="557.667">getGroupId(): int</text><ellipse cx="298" cy="570.6172" fill="#84BE84" rx="3" ry="3" style="stroke:#038048;stroke-width:1.0;"></ellipse><text fill="#000000" font-family="sans-serif" font-size="14" lengthAdjust="spacing" textLength="271" x="307" y="573.9639">setTaskName(taskName: String): void</text><ellipse cx="298" cy="586.9141" fill="#84BE84" rx="3" ry="3" style="stroke:#038048;stroke-width:1.0;"></ellipse><text fill="#000000" font-family="sans-serif" font-size="14" lengthAdjust="spacing" textLength="357" x="307" y="590.2607">setTaskDescription(taskDescription: String): void</text><ellipse cx="298" cy="603.2109" fill="#84BE84" rx="3" ry="3" style="stroke:#038048;stroke-width:1.0;"></ellipse><text fill="#000000" font-family="sans-serif" font-size="14" lengthAdjust="spacing" textLength="269" x="307" y="606.5576">setTaskState(taskState: String): void</text><ellipse cx="298" cy="619.5078" fill="#84BE84" rx="3" ry="3" style="stroke:#038048;stroke-width:1.0;"></ellipse><text fill="#000000" font-family="sans-serif" font-size="14" lengthAdjust="spacing" textLength="213" x="307" y="622.8545">setGroupId(groupId: int): void</text></g><!--class Group--><g id="elem_Group"><rect codeline="27" fill="#F1F1F1" height="129.4844" id="Group" rx="2.5" ry="2.5" style="stroke:#181818;stroke-width:0.5;" width="319" x="319" y="690"></rect><ellipse cx="452.25" cy="706" fill="#ADD1B2" rx="11" ry="11" style="stroke:#181818;stroke-width:1.0;"></ellipse><path d="M454.5938,701.6719 C453.6563,701.2344 453.0625,701.0938 452.1875,701.0938 C449.5625,701.0938 447.5625,703.1719 447.5625,705.8906 L447.5625,707.0156 C447.5625,709.5938 449.6719,711.4844 452.5625,711.4844 C453.7813,711.4844 454.9375,711.1875 455.6875,710.6406 C456.2656,710.2344 456.5938,709.7813 456.5938,709.3906 C456.5938,708.9375 456.2031,708.5469 455.7344,708.5469 C455.5156,708.5469 455.3125,708.625 455.125,708.8125 C454.6719,709.2969 454.6719,709.2969 454.4844,709.3906 C454.0625,709.6563 453.375,709.7813 452.6094,709.7813 C450.5625,709.7813 449.2656,708.6875 449.2656,706.9844 L449.2656,705.8906 C449.2656,704.1094 450.5156,702.7969 452.25,702.7969 C452.8281,702.7969 453.4375,702.9531 453.9063,703.2031 C454.3906,703.4844 454.5625,703.7031 454.6563,704.1094 C454.7188,704.5156 454.75,704.6406 454.8906,704.7656 C455.0313,704.9063 455.2656,705.0156 455.4844,705.0156 C455.75,705.0156 456.0156,704.875 456.1875,704.6563 C456.2969,704.5 456.3281,704.3125 456.3281,703.8906 L456.3281,702.4688 C456.3281,702.0313 456.3125,701.9063 456.2188,701.75 C456.0625,701.4844 455.7813,701.3438 455.4844,701.3438 C455.1875,701.3438 454.9844,701.4375 454.7656,701.75 L454.5938,701.6719 Z " fill="#000000"></path><text fill="#000000" font-family="sans-serif" font-size="14" lengthAdjust="spacing" textLength="44" x="472.75" y="710.8467">Group</text><line style="stroke:#181818;stroke-width:0.5;" x1="320" x2="637" y1="722" y2="722"></line><rect fill="none" height="6" style="stroke:#C82930;stroke-width:1.0;" width="6" x="327" y="732.6484"></rect><text fill="#000000" font-family="sans-serif" font-size="14" lengthAdjust="spacing" textLength="84" x="339" y="738.9951">groupId: int</text><rect fill="none" height="6" style="stroke:#C82930;stroke-width:1.0;" width="6" x="327" y="748.9453"></rect><text fill="#000000" font-family="sans-serif" font-size="14" lengthAdjust="spacing" textLength="136" x="339" y="755.292">groupName: String</text><line style="stroke:#181818;stroke-width:0.5;" x1="320" x2="637" y1="762.5938" y2="762.5938"></line><ellipse cx="330" cy="776.2422" fill="#84BE84" rx="3" ry="3" style="stroke:#038048;stroke-width:1.0;"></ellipse><text fill="#000000" font-family="sans-serif" font-size="14" lengthAdjust="spacing" textLength="121" x="339" y="779.5889">getGroupId(): int</text><ellipse cx="330" cy="792.5391" fill="#84BE84" rx="3" ry="3" style="stroke:#038048;stroke-width:1.0;"></ellipse><text fill="#000000" font-family="sans-serif" font-size="14" lengthAdjust="spacing" textLength="173" x="339" y="795.8857">getGroupName(): String</text><ellipse cx="330" cy="808.8359" fill="#84BE84" rx="3" ry="3" style="stroke:#038048;stroke-width:1.0;"></ellipse><text fill="#000000" font-family="sans-serif" font-size="14" lengthAdjust="spacing" textLength="293" x="339" y="812.1826">setGroupName(groupName: String): void</text></g><!--class Application--><g id="elem_Application"><rect codeline="35" fill="#F1F1F1" height="80.5938" id="Application" rx="2.5" ry="2.5" style="stroke:#181818;stroke-width:0.5;" width="481" x="7" y="7"></rect><ellipse cx="201.75" cy="23" fill="#ADD1B2" rx="11" ry="11" style="stroke:#181818;stroke-width:1.0;"></ellipse><path d="M204.0938,18.6719 C203.1563,18.2344 202.5625,18.0938 201.6875,18.0938 C199.0625,18.0938 197.0625,20.1719 197.0625,22.8906 L197.0625,24.0156 C197.0625,26.5938 199.1719,28.4844 202.0625,28.4844 C203.2813,28.4844 204.4375,28.1875 205.1875,27.6406 C205.7656,27.2344 206.0938,26.7813 206.0938,26.3906 C206.0938,25.9375 205.7031,25.5469 205.2344,25.5469 C205.0156,25.5469 204.8125,25.625 204.625,25.8125 C204.1719,26.2969 204.1719,26.2969 203.9844,26.3906 C203.5625,26.6563 202.875,26.7813 202.1094,26.7813 C200.0625,26.7813 198.7656,25.6875 198.7656,23.9844 L198.7656,22.8906 C198.7656,21.1094 200.0156,19.7969 201.75,19.7969 C202.3281,19.7969 202.9375,19.9531 203.4063,20.2031 C203.8906,20.4844 204.0625,20.7031 204.1563,21.1094 C204.2188,21.5156 204.25,21.6406 204.3906,21.7656 C204.5313,21.9063 204.7656,22.0156 204.9844,22.0156 C205.25,22.0156 205.5156,21.875 205.6875,21.6563 C205.7969,21.5 205.8281,21.3125 205.8281,20.8906 L205.8281,19.4688 C205.8281,19.0313 205.8125,18.9063 205.7188,18.75 C205.5625,18.4844 205.2813,18.3438 204.9844,18.3438 C204.6875,18.3438 204.4844,18.4375 204.2656,18.75 L204.0938,18.6719 Z " fill="#000000"></path><text fill="#000000" font-family="sans-serif" font-size="14" lengthAdjust="spacing" textLength="83" x="222.25" y="27.8467">Application</text><line style="stroke:#181818;stroke-width:0.5;" x1="8" x2="487" y1="39" y2="39"></line><line style="stroke:#181818;stroke-width:0.5;" x1="8" x2="487" y1="47" y2="47"></line><ellipse cx="18" cy="60.6484" fill="#84BE84" rx="3" ry="3" style="stroke:#038048;stroke-width:1.0;"></ellipse><text fill="#000000" font-family="sans-serif" font-size="14" lengthAdjust="spacing" textLength="259" x="27" y="63.9951">addTask(user: User, task: Task): void</text><ellipse cx="18" cy="76.9453" fill="#84BE84" rx="3" ry="3" style="stroke:#038048;stroke-width:1.0;"></ellipse><text fill="#000000" font-family="sans-serif" font-size="14" lengthAdjust="spacing" textLength="455" x="27" y="80.292">changeTaskState(user: User, task: Task, newState: String): void</text></g><!--class Controller--><g id="elem_Controller"><rect codeline="40" fill="#F1F1F1" height="80.5938" id="Controller" rx="2.5" ry="2.5" style="stroke:#181818;stroke-width:0.5;" width="355" x="524" y="7"></rect><ellipse cx="660.75" cy="23" fill="#ADD1B2" rx="11" ry="11" style="stroke:#181818;stroke-width:1.0;"></ellipse><path d="M663.0938,18.6719 C662.1563,18.2344 661.5625,18.0938 660.6875,18.0938 C658.0625,18.0938 656.0625,20.1719 656.0625,22.8906 L656.0625,24.0156 C656.0625,26.5938 658.1719,28.4844 661.0625,28.4844 C662.2813,28.4844 663.4375,28.1875 664.1875,27.6406 C664.7656,27.2344 665.0938,26.7813 665.0938,26.3906 C665.0938,25.9375 664.7031,25.5469 664.2344,25.5469 C664.0156,25.5469 663.8125,25.625 663.625,25.8125 C663.1719,26.2969 663.1719,26.2969 662.9844,26.3906 C662.5625,26.6563 661.875,26.7813 661.1094,26.7813 C659.0625,26.7813 657.7656,25.6875 657.7656,23.9844 L657.7656,22.8906 C657.7656,21.1094 659.0156,19.7969 660.75,19.7969 C661.3281,19.7969 661.9375,19.9531 662.4063,20.2031 C662.8906,20.4844 663.0625,20.7031 663.1563,21.1094 C663.2188,21.5156 663.25,21.6406 663.3906,21.7656 C663.5313,21.9063 663.7656,22.0156 663.9844,22.0156 C664.25,22.0156 664.5156,21.875 664.6875,21.6563 C664.7969,21.5 664.8281,21.3125 664.8281,20.8906 L664.8281,19.4688 C664.8281,19.0313 664.8125,18.9063 664.7188,18.75 C664.5625,18.4844 664.2813,18.3438 663.9844,18.3438 C663.6875,18.3438 663.4844,18.4375 663.2656,18.75 L663.0938,18.6719 Z " fill="#000000"></path><text fill="#000000" font-family="sans-serif" font-size="14" lengthAdjust="spacing" textLength="73" x="681.25" y="27.8467">Controller</text><line style="stroke:#181818;stroke-width:0.5;" x1="525" x2="878" y1="39" y2="39"></line><line style="stroke:#181818;stroke-width:0.5;" x1="525" x2="878" y1="47" y2="47"></line><ellipse cx="535" cy="60.6484" fill="#84BE84" rx="3" ry="3" style="stroke:#038048;stroke-width:1.0;"></ellipse><text fill="#000000" font-family="sans-serif" font-size="14" lengthAdjust="spacing" textLength="274" x="544" y="63.9951">validateTaskData(task: Task): boolean</text><ellipse cx="535" cy="76.9453" fill="#84BE84" rx="3" ry="3" style="stroke:#038048;stroke-width:1.0;"></ellipse><text fill="#000000" font-family="sans-serif" font-size="14" lengthAdjust="spacing" textLength="329" x="544" y="80.292">validateTaskState(newState: String): boolean</text></g><!--class Database--><g id="elem_Database"><rect codeline="45" fill="#F1F1F1" height="80.5938" id="Database" rx="2.5" ry="2.5" style="stroke:#181818;stroke-width:0.5;" width="272" x="567.5" y="180.5"></rect><ellipse cx="665.25" cy="196.5" fill="#ADD1B2" rx="11" ry="11" style="stroke:#181818;stroke-width:1.0;"></ellipse><path d="M667.5938,192.1719 C666.6563,191.7344 666.0625,191.5938 665.1875,191.5938 C662.5625,191.5938 660.5625,193.6719 660.5625,196.3906 L660.5625,197.5156 C660.5625,200.0938 662.6719,201.9844 665.5625,201.9844 C666.7813,201.9844 667.9375,201.6875 668.6875,201.1406 C669.2656,200.7344 669.5938,200.2813 669.5938,199.8906 C669.5938,199.4375 669.2031,199.0469 668.7344,199.0469 C668.5156,199.0469 668.3125,199.125 668.125,199.3125 C667.6719,199.7969 667.6719,199.7969 667.4844,199.8906 C667.0625,200.1563 666.375,200.2813 665.6094,200.2813 C663.5625,200.2813 662.2656,199.1875 662.2656,197.4844 L662.2656,196.3906 C662.2656,194.6094 663.5156,193.2969 665.25,193.2969 C665.8281,193.2969 666.4375,193.4531 666.9063,193.7031 C667.3906,193.9844 667.5625,194.2031 667.6563,194.6094 C667.7188,195.0156 667.75,195.1406 667.8906,195.2656 C668.0313,195.4063 668.2656,195.5156 668.4844,195.5156 C668.75,195.5156 669.0156,195.375 669.1875,195.1563 C669.2969,195 669.3281,194.8125 669.3281,194.3906 L669.3281,192.9688 C669.3281,192.5313 669.3125,192.4063 669.2188,192.25 C669.0625,191.9844 668.7813,191.8438 668.4844,191.8438 C668.1875,191.8438 667.9844,191.9375 667.7656,192.25 L667.5938,192.1719 Z " fill="#000000"></path><text fill="#000000" font-family="sans-serif" font-size="14" lengthAdjust="spacing" textLength="68" x="685.75" y="201.3467">Database</text><line style="stroke:#181818;stroke-width:0.5;" x1="568.5" x2="838.5" y1="212.5" y2="212.5"></line><line style="stroke:#181818;stroke-width:0.5;" x1="568.5" x2="838.5" y1="220.5" y2="220.5"></line><ellipse cx="578.5" cy="234.1484" fill="#84BE84" rx="3" ry="3" style="stroke:#038048;stroke-width:1.0;"></ellipse><text fill="#000000" font-family="sans-serif" font-size="14" lengthAdjust="spacing" textLength="187" x="587.5" y="237.4951">saveTask(task: Task): void</text><ellipse cx="578.5" cy="250.4453" fill="#84BE84" rx="3" ry="3" style="stroke:#038048;stroke-width:1.0;"></ellipse><text fill="#000000" font-family="sans-serif" font-size="14" lengthAdjust="spacing" textLength="246" x="587.5" y="253.792">updateTaskState(task: Task): void</text></g><!--link User to Task--><g id="link_User_Task"><path codeline="50" d="M307.208,294.087 C322.311,311.449 338.965,330.594 355.777,349.921 " fill="none" id="User-to-Task" style="stroke:#181818;stroke-width:1.0;"></path><polygon fill="#181818" points="359.141,353.788,356.2528,344.3721,355.8597,350.0153,350.2165,349.6222,359.141,353.788" style="stroke:#181818;stroke-width:1.0;"></polygon></g><!--link Task to Group--><g id="link_Task_Group"><path codeline="51" d="M478.5,630.116 C478.5,649 478.5,667.691 478.5,684.595 " fill="none" id="Task-to-Group" style="stroke:#181818;stroke-width:1.0;"></path><polygon fill="#181818" points="478.5,689.782,482.5,680.782,478.5,684.782,474.5,680.782,478.5,689.782" style="stroke:#181818;stroke-width:1.0;"></polygon></g><!--link Application to User--><g id="link_Application_User"><path codeline="52" d="M246.804,88.277 C246.521,104.467 246.183,123.761 245.855,142.522 " fill="none" id="Application-to-User" style="stroke:#181818;stroke-width:1.0;"></path><polygon fill="#181818" points="245.763,147.797,249.9193,138.8681,245.8502,142.7978,241.9205,138.7286,245.763,147.797" style="stroke:#181818;stroke-width:1.0;"></polygon></g><!--link Application to Task--><g id="link_Application_Task"><path codeline="53" d="M338.739,88.052 C364.493,103.315 390.184,123.187 407.5,148 C448.116,206.201 466.455,282.625 474.388,348.559 " fill="none" id="Application-to-Task" style="stroke:#181818;stroke-width:1.0;"></path><polygon fill="#181818" points="474.987,353.69,477.9159,344.2867,474.4069,348.7238,469.9699,345.2148,474.987,353.69" style="stroke:#181818;stroke-width:1.0;"></polygon></g><!--link Controller to Task--><g id="link_Controller_Task"><path codeline="54" d="M616.966,88.05 C592.136,103.495 567.192,123.473 550.5,148 C510.631,206.586 492.136,282.858 483.819,348.597 " fill="none" id="Controller-to-Task" style="stroke:#181818;stroke-width:1.0;"></path><polygon fill="#181818" points="483.19,353.713,488.2581,345.2682,483.8,348.7503,480.3178,344.2922,483.19,353.713" style="stroke:#181818;stroke-width:1.0;"></polygon></g><!--link Controller to Database--><g id="link_Controller_Database"><path codeline="55" d="M701.964,88.277 C702.267,114.251 702.663,148.216 702.977,175.15 " fill="none" id="Controller-to-Database" style="stroke:#181818;stroke-width:1.0;"></path><polygon fill="#181818" points="703.039,180.439,706.9333,171.3928,702.9804,175.4393,698.9339,171.4865,703.039,180.439" style="stroke:#181818;stroke-width:1.0;"></polygon></g><!--link Database to Task--><g id="link_Database_Task"><path codeline="56" d="M670.3,261.692 C650.39,285.496 623.737,317.361 596.646,349.75 " fill="none" id="Database-to-Task" style="stroke:#181818;stroke-width:1.0;"></path><polygon fill="#181818" points="593.34,353.702,602.1817,349.3633,596.5472,349.8662,596.0444,344.2317,593.34,353.702" style="stroke:#181818;stroke-width:1.0;"></polygon></g><!--SRC=[TLJ1ReGW4Btx5HnjN7_0GvEcJPfUDatM_O1P9PRK0X5q3qt_lJ22Yu0tcNapxyqRi1j1AN9LT2A_1I4rcSqdXn_Qa8kU61ymA0teBgO-25PaeFhgmELJdFbq5L561JKnaq4kWlKUjtM8oJtkhoWwLD-2-dRgjVdyC4Z6zNO-nzFOu1jLtSIaPe8dkOi6lQyO9Z7BHr-Si4KgEryKF6SDQVUaUG0ofwdtbJxaKW5NF6HaPCnyC7wcQfMJM18XlRhGf6H7279BYjnqWMXDHuFxQCPb5QQIdeca5ob7re7r08LL1FhUZeqtiy57SS8BqU0L2yVkle0FzE5Hlk94EBrdhTj4l0gk9p6ExlrLP86HzQO2jmOQofs0cn0Z1PuWLnKPDb-m4TgUDr3KqIbOi46PdtEMUuOKPHhZtwEkdp5Uu6kq9zn54RfienQS1B4miE8eviKNsnGU-Gy0]--></g></svg>