<!--?xml version="1.0" encoding="us-ascii" standalone="no"?--><svg xmlns="http://www.w3.org/2000/svg" xmlns:xlink="http://www.w3.org/1999/xlink" contentstyletype="text/css" height="651px" preserveAspectRatio="none" style="width:665px;height:651px;background:#FFFFFF;" version="1.1" viewBox="0 0 665 651" width="665px" zoomAndPan="magnify"><defs></defs><g><ellipse cx="266.9419" cy="16" fill="#181818" rx="10" ry="10" style="stroke:none;stroke-width:1.0;"></ellipse><g id="LoginScreen"><rect fill="#F1F1F1" height="50.2656" rx="12.5" ry="12.5" style="stroke:#181818;stroke-width:0.5;" width="109" x="212.4419" y="87"></rect><line style="stroke:#181818;stroke-width:0.5;" x1="212.4419" x2="321.4419" y1="113.2969" y2="113.2969"></line><text fill="#000000" font-family="sans-serif" font-size="14" lengthAdjust="spacing" textLength="89" x="222.4419" y="104.9951">LoginScreen</text><text fill="#000000" font-family="sans-serif" font-size="12" lengthAdjust="spacing" textLength="65" x="217.4419" y="129.4355">User Login</text></g><g id="RegisterScreen"><rect fill="#F1F1F1" height="50.2656" rx="12.5" ry="12.5" style="stroke:#181818;stroke-width:0.5;" width="131" x="74.442" y="214"></rect><line style="stroke:#181818;stroke-width:0.5;" x1="74.442" x2="205.442" y1="240.2969" y2="240.2969"></line><text fill="#000000" font-family="sans-serif" font-size="14" lengthAdjust="spacing" textLength="111" x="84.442" y="231.9951">RegisterScreen</text><text fill="#000000" font-family="sans-serif" font-size="12" lengthAdjust="spacing" textLength="104" x="79.442" y="256.4355">User Registration</text></g><g id="MainScreen"><rect fill="#F1F1F1" height="50.2656" rx="12.5" ry="12.5" style="stroke:#181818;stroke-width:0.5;" width="103" x="156.4419" y="341"></rect><line style="stroke:#181818;stroke-width:0.5;" x1="156.4419" x2="259.4419" y1="367.2969" y2="367.2969"></line><text fill="#000000" font-family="sans-serif" font-size="14" lengthAdjust="spacing" textLength="83" x="166.4419" y="358.9951">MainScreen</text><text fill="#000000" font-family="sans-serif" font-size="12" lengthAdjust="spacing" textLength="36" x="161.4419" y="383.4355">Home</text></g><g id="AddTaskScreen"><rect fill="#F1F1F1" height="50.2656" rx="12.5" ry="12.5" style="stroke:#181818;stroke-width:0.5;" width="131" x="48.442" y="468"></rect><line style="stroke:#181818;stroke-width:0.5;" x1="48.442" x2="179.442" y1="494.2969" y2="494.2969"></line><text fill="#000000" font-family="sans-serif" font-size="14" lengthAdjust="spacing" textLength="111" x="58.442" y="485.9951">AddTaskScreen</text><text fill="#000000" font-family="sans-serif" font-size="12" lengthAdjust="spacing" textLength="56" x="53.442" y="510.4355">Add Task</text></g><g id="EditTaskScreen"><rect fill="#F1F1F1" height="50.2656" rx="12.5" ry="12.5" style="stroke:#181818;stroke-width:0.5;" width="132" x="235.9419" y="468"></rect><line style="stroke:#181818;stroke-width:0.5;" x1="235.9419" x2="367.9419" y1="494.2969" y2="494.2969"></line><text fill="#000000" font-family="sans-serif" font-size="14" lengthAdjust="spacing" textLength="112" x="245.9419" y="485.9951">EditTaskScreen</text><text fill="#000000" font-family="sans-serif" font-size="12" lengthAdjust="spacing" textLength="54" x="240.9419" y="510.4355">Edit Task</text></g><g id="RemoveChangeStateTaskScreen"><rect fill="#F1F1F1" height="50.2656" rx="12.5" ry="12.5" style="stroke:#181818;stroke-width:0.5;" width="256" x="20.942" y="595"></rect><line style="stroke:#181818;stroke-width:0.5;" x1="20.942" x2="276.942" y1="621.2969" y2="621.2969"></line><text fill="#000000" font-family="sans-serif" font-size="14" lengthAdjust="spacing" textLength="236" x="30.942" y="612.9951">RemoveChangeStateTaskScreen</text><text fill="#000000" font-family="sans-serif" font-size="12" lengthAdjust="spacing" textLength="150" x="25.942" y="637.4355">Remove or Change State</text></g><g id="AddTaskToGroupScreen"><rect fill="#F1F1F1" height="50.2656" rx="12.5" ry="12.5" style="stroke:#181818;stroke-width:0.5;" width="193" x="357.4419" y="595"></rect><line style="stroke:#181818;stroke-width:0.5;" x1="357.4419" x2="550.4419" y1="621.2969" y2="621.2969"></line><text fill="#000000" font-family="sans-serif" font-size="14" lengthAdjust="spacing" textLength="173" x="367.4419" y="612.9951">AddTaskToGroupScreen</text><text fill="#000000" font-family="sans-serif" font-size="12" lengthAdjust="spacing" textLength="113" x="362.4419" y="637.4355">Add Task to Group</text></g><!--link *start* to LoginScreen--><g id="link_*start*_LoginScreen"><path d="M266.9419,26.013 C266.9419,38.698 266.9419,62.409 266.9419,81.57 " fill="none" id="*start*-to-LoginScreen" style="stroke:#181818;stroke-width:1.0;"></path><polygon fill="#181818" points="266.9419,86.84,270.9419,77.84,266.9419,81.84,262.9419,77.84,266.9419,86.84" style="stroke:#181818;stroke-width:1.0;"></polygon></g><!--link LoginScreen to RegisterScreen--><g id="link_LoginScreen_RegisterScreen"><path d="M237.0779,137.244 C226.3609,146.293 214.3579,156.841 203.9419,167 C190.0539,180.546 175.5029,196.527 163.7919,209.893 " fill="none" id="LoginScreen-to-RegisterScreen" style="stroke:#181818;stroke-width:1.0;"></path><polygon fill="#181818" points="160.2519,213.952,169.1823,209.7989,163.5385,210.184,163.1535,204.5403,160.2519,213.952" style="stroke:#181818;stroke-width:1.0;"></polygon><text fill="#000000" font-family="sans-serif" font-size="13" lengthAdjust="spacing" textLength="61" x="204.9419" y="180.0669">New User</text></g><!--link RegisterScreen to MainScreen--><g id="link_RegisterScreen_MainScreen"><path d="M124.2679,264.11 C117.0969,278.39 111.8119,296.472 119.9419,311 C127.2559,324.07 139.1699,334.36 151.9029,342.294 " fill="none" id="RegisterScreen-to-MainScreen" style="stroke:#181818;stroke-width:1.0;"></path><polygon fill="#181818" points="156.2459,344.894,150.5789,336.8388,151.956,342.3255,146.4694,343.7026,156.2459,344.894" style="stroke:#181818;stroke-width:1.0;"></polygon><text fill="#000000" font-family="sans-serif" font-size="13" lengthAdjust="spacing" textLength="145" x="120.9419" y="307.0669">Successful registration</text></g><!--link LoginScreen to MainScreen--><g id="link_LoginScreen_MainScreen"><path d="M273.9069,137.221 C283.6709,175.964 297.4489,253.369 270.9419,311 C266.3379,321.01 258.8619,329.859 250.6399,337.347 " fill="none" id="LoginScreen-to-MainScreen" style="stroke:#181818;stroke-width:1.0;"></path><polygon fill="#181818" points="246.5539,340.912,255.9651,338.0087,250.3213,337.6246,250.7053,331.9808,246.5539,340.912" style="stroke:#181818;stroke-width:1.0;"></polygon><text fill="#000000" font-family="sans-serif" font-size="13" lengthAdjust="spacing" textLength="102" x="287.9419" y="243.5669">Successful login</text></g><!--link MainScreen to AddTaskScreen--><g id="link_MainScreen_AddTaskScreen"><path d="M156.0949,369.668 C119.8789,374.563 73.8841,387.516 49.942,421 C38.9973,436.307 50.3042,451.983 66.298,464.699 " fill="none" id="MainScreen-to-AddTaskScreen" style="stroke:#181818;stroke-width:1.0;"></path><polygon fill="#181818" points="70.4546,467.866,65.72,459.2298,66.4775,464.8357,60.8716,465.5932,70.4546,467.866" style="stroke:#181818;stroke-width:1.0;"></polygon><text fill="#000000" font-family="sans-serif" font-size="13" lengthAdjust="spacing" textLength="59" x="50.942" y="434.0669">Add Task</text></g><!--link AddTaskScreen to MainScreen--><g id="link_AddTaskScreen_MainScreen"><path d="M124.0989,467.815 C130.6869,453.508 140.0579,435.424 150.9419,421 C157.8569,411.836 166.3909,402.857 174.7309,394.933 " fill="none" id="AddTaskScreen-to-MainScreen" style="stroke:#181818;stroke-width:1.0;"></path><polygon fill="#181818" points="178.8009,391.132,169.4932,394.3516,175.1467,394.5448,174.9536,400.1983,178.8009,391.132" style="stroke:#181818;stroke-width:1.0;"></polygon><text fill="#000000" font-family="sans-serif" font-size="13" lengthAdjust="spacing" textLength="66" x="151.9419" y="434.0669">Save Task</text></g><!--link MainScreen to EditTaskScreen--><g id="link_MainScreen_EditTaskScreen"><path d="M224.8819,391.207 C234.6699,405.035 247.3129,422.629 258.9419,438 C265.3419,446.46 272.4569,455.525 279.0279,463.766 " fill="none" id="MainScreen-to-EditTaskScreen" style="stroke:#181818;stroke-width:1.0;"></path><polygon fill="#181818" points="282.2039,467.739,279.7098,458.2112,279.0823,463.8331,273.4604,463.2057,282.2039,467.739" style="stroke:#181818;stroke-width:1.0;"></polygon><text fill="#000000" font-family="sans-serif" font-size="13" lengthAdjust="spacing" textLength="58" x="259.9419" y="434.0669">Edit Task</text></g><!--link EditTaskScreen to MainScreen--><g id="link_EditTaskScreen_MainScreen"><path d="M318.5309,467.914 C326.2599,453.473 331.9709,435.214 322.9419,421 C309.9129,400.489 286.8009,387.63 264.6959,379.637 " fill="none" id="EditTaskScreen-to-MainScreen" style="stroke:#181818;stroke-width:1.0;"></path><polygon fill="#181818" points="259.7029,377.906,266.8946,384.635,264.4267,379.5449,269.5168,377.077,259.7029,377.906" style="stroke:#181818;stroke-width:1.0;"></polygon><text fill="#000000" font-family="sans-serif" font-size="13" lengthAdjust="spacing" textLength="92" x="328.9419" y="434.0669">Save Changes</text></g><!--link EditTaskScreen to RemoveChangeStateTaskScreen--><g id="link_EditTaskScreen_RemoveChangeStateTaskScreen"><path d="M235.6869,509.725 C222.8589,512.605 209.5029,515.49 196.9419,518 C158.2509,525.732 47.3758,517.835 21.942,548 C6,566.9075 20.8276,581.7376 45.2211,592.8436 " fill="none" id="EditTaskScreen-to-RemoveChangeStateTaskScreen" style="stroke:#181818;stroke-width:1.0;"></path><polygon fill="#181818" points="49.882,594.8741,43.2288,587.6122,45.2982,592.877,40.0334,594.9463,49.882,594.8741" style="stroke:#181818;stroke-width:1.0;"></polygon><text fill="#000000" font-family="sans-serif" font-size="13" lengthAdjust="spacing" textLength="162" x="22.942" y="561.0669">Remove or Change State</text></g><!--link RemoveChangeStateTaskScreen to EditTaskScreen--><g id="link_RemoveChangeStateTaskScreen_EditTaskScreen"><path d="M178.3519,594.9727 C204.1469,573.898 241.6339,543.271 268.5499,521.281 " fill="none" id="RemoveChangeStateTaskScreen-to-EditTaskScreen" style="stroke:#181818;stroke-width:1.0;"></path><polygon fill="#181818" points="272.4419,518.101,262.9414,520.6974,268.5698,521.2644,268.0029,526.8928,272.4419,518.101" style="stroke:#181818;stroke-width:1.0;"></polygon><text fill="#000000" font-family="sans-serif" font-size="13" lengthAdjust="spacing" textLength="104" x="235.9419" y="561.0669">Confirm Change</text></g><!--link EditTaskScreen to AddTaskToGroupScreen--><g id="link_EditTaskScreen_AddTaskToGroupScreen"><path d="M323.4819,518.291 C336.7709,532.635 354.5499,550.7209 371.9419,565 C383.5419,574.5234 396.8619,583.8837 409.3479,592.0665 " fill="none" id="EditTaskScreen-to-AddTaskToGroupScreen" style="stroke:#181818;stroke-width:1.0;"></path><polygon fill="#181818" points="413.5459,594.7949,408.1786,586.537,409.3533,592.0706,403.8197,593.2452,413.5459,594.7949" style="stroke:#181818;stroke-width:1.0;"></polygon><text fill="#000000" font-family="sans-serif" font-size="13" lengthAdjust="spacing" textLength="119" x="372.9419" y="561.0669">Add Task to Group</text></g><!--link AddTaskToGroupScreen to EditTaskScreen--><g id="link_AddTaskToGroupScreen_EditTaskScreen"><path d="M483.4999,594.8399 C497.1909,580.7083 508.1969,562.7955 496.9419,548 C481.7009,527.964 422.4009,513.437 373.1549,504.53 " fill="none" id="AddTaskToGroupScreen-to-EditTaskScreen" style="stroke:#181818;stroke-width:1.0;"></path><polygon fill="#181818" points="368.1189,503.632,376.2777,509.1487,373.0414,504.5091,377.681,501.2728,368.1189,503.632" style="stroke:#181818;stroke-width:1.0;"></polygon><text fill="#000000" font-family="sans-serif" font-size="13" lengthAdjust="spacing" textLength="155" x="502.9419" y="561.0669">Save Group Assignment</text></g><!--SRC=[dP713i8W44JlVCMUJVe37aoCCNfG3rPFnWDfjvLeMGEq_hu2JLDQgeats7ap372PNI595h2ZKiWqKuYIzTOmXxD6vUL0iAOZba8RL1rxm9VZsKXnANwgk14aXuZDs_FUkMcTPQXrKJz0zNt34bEcXwlC0dbB5VOdrh_CynFNzuxvxC4EXjmw5oO0xS2JR38Z5CPrUODjn9VuWUHVlg86LpSkIqmDDnXOlGgam1FWa5ZEk8rtw1ZSNkP46qNrStHPC0HEOUolUjzCqGzOaIo4gjgKxXT-zuk2qIFSapWAbbgBKbOepHi0]--></g></svg>