<!--?xml version="1.0" encoding="us-ascii" standalone="no"?--><svg xmlns="http://www.w3.org/2000/svg" xmlns:xlink="http://www.w3.org/1999/xlink" contentstyletype="text/css" height="503px" preserveAspectRatio="none" style="width:529px;height:503px;background:#FFFFFF;" version="1.1" viewBox="0 0 529 503" width="529px" zoomAndPan="magnify"><defs></defs><g><rect fill="none" height="206.7344" style="stroke:#000000;stroke-width:1.5;" width="512.5" x="10" y="198.6953"></rect><line style="stroke:#181818;stroke-width:0.5;stroke-dasharray:5.0,5.0;" x1="38" x2="38" y1="81.2969" y2="422.4297"></line><line style="stroke:#181818;stroke-width:0.5;stroke-dasharray:5.0,5.0;" x1="200" x2="200" y1="81.2969" y2="422.4297"></line><line style="stroke:#181818;stroke-width:0.5;stroke-dasharray:5.0,5.0;" x1="340" x2="340" y1="81.2969" y2="422.4297"></line><line style="stroke:#181818;stroke-width:0.5;stroke-dasharray:5.0,5.0;" x1="475.5" x2="475.5" y1="81.2969" y2="422.4297"></line><text fill="#000000" font-family="sans-serif" font-size="14" lengthAdjust="spacing" textLength="31" x="20" y="77.9951">User</text><ellipse cx="38.5" cy="13.5" fill="#E2E2F0" rx="8" ry="8" style="stroke:#181818;stroke-width:0.5;"></ellipse><path d="M38.5,21.5 L38.5,48.5 M25.5,29.5 L51.5,29.5 M38.5,48.5 L25.5,63.5 M38.5,48.5 L51.5,63.5 " fill="none" style="stroke:#181818;stroke-width:0.5;"></path><text fill="#000000" font-family="sans-serif" font-size="14" lengthAdjust="spacing" textLength="31" x="20" y="434.4248">User</text><ellipse cx="38.5" cy="446.2266" fill="#E2E2F0" rx="8" ry="8" style="stroke:#181818;stroke-width:0.5;"></ellipse><path d="M38.5,454.2266 L38.5,481.2266 M25.5,462.2266 L51.5,462.2266 M38.5,481.2266 L25.5,496.2266 M38.5,481.2266 L51.5,496.2266 " fill="none" style="stroke:#181818;stroke-width:0.5;"></path><text fill="#000000" font-family="sans-serif" font-size="14" lengthAdjust="spacing" textLength="83" x="156" y="77.9951">Application</text><path d="M180,37 L180,61 M180,49 L197,49 " fill="none" style="stroke:#181818;stroke-width:0.5;"></path><ellipse cx="209" cy="49" fill="#E2E2F0" rx="12" ry="12" style="stroke:#181818;stroke-width:0.5;"></ellipse><text fill="#000000" font-family="sans-serif" font-size="14" lengthAdjust="spacing" textLength="83" x="156" y="434.4248">Application</text><path d="M180,441.7266 L180,465.7266 M180,453.7266 L197,453.7266 " fill="none" style="stroke:#181818;stroke-width:0.5;"></path><ellipse cx="209" cy="453.7266" fill="#E2E2F0" rx="12" ry="12" style="stroke:#181818;stroke-width:0.5;"></ellipse><text fill="#000000" font-family="sans-serif" font-size="14" lengthAdjust="spacing" textLength="73" x="301" y="77.9951">Controller</text><ellipse cx="340.5" cy="49" fill="#E2E2F0" rx="12" ry="12" style="stroke:#181818;stroke-width:0.5;"></ellipse><polygon fill="#181818" points="336.5,37,342.5,32,340.5,37,342.5,42,336.5,37" style="stroke:#181818;stroke-width:1.0;"></polygon><text fill="#000000" font-family="sans-serif" font-size="14" lengthAdjust="spacing" textLength="73" x="301" y="434.4248">Controller</text><ellipse cx="340.5" cy="453.7266" fill="#E2E2F0" rx="12" ry="12" style="stroke:#181818;stroke-width:0.5;"></ellipse><polygon fill="#181818" points="336.5,441.7266,342.5,436.7266,340.5,441.7266,342.5,446.7266,336.5,441.7266" style="stroke:#181818;stroke-width:1.0;"></polygon><text fill="#000000" font-family="sans-serif" font-size="14" lengthAdjust="spacing" textLength="68" x="438.5" y="77.9951">Database</text><ellipse cx="475.5" cy="49" fill="#E2E2F0" rx="12" ry="12" style="stroke:#181818;stroke-width:0.5;"></ellipse><line style="stroke:#181818;stroke-width:0.5;" x1="463.5" x2="487.5" y1="63" y2="63"></line><text fill="#000000" font-family="sans-serif" font-size="14" lengthAdjust="spacing" textLength="68" x="438.5" y="434.4248">Database</text><ellipse cx="475.5" cy="453.7266" fill="#E2E2F0" rx="12" ry="12" style="stroke:#181818;stroke-width:0.5;"></ellipse><line style="stroke:#181818;stroke-width:0.5;" x1="463.5" x2="487.5" y1="467.7266" y2="467.7266"></line><polygon fill="#181818" points="188.5,108.4297,198.5,112.4297,188.5,116.4297,192.5,112.4297" style="stroke:#181818;stroke-width:1.0;"></polygon><line style="stroke:#181818;stroke-width:1.0;" x1="38.5" x2="194.5" y1="112.4297" y2="112.4297"></line><text fill="#000000" font-family="sans-serif" font-size="13" lengthAdjust="spacing" textLength="116" x="45.5" y="107.3638">Add Task Request</text><polygon fill="#181818" points="328.5,137.5625,338.5,141.5625,328.5,145.5625,332.5,141.5625" style="stroke:#181818;stroke-width:1.0;"></polygon><line style="stroke:#181818;stroke-width:1.0;" x1="200.5" x2="334.5" y1="141.5625" y2="141.5625"></line><text fill="#000000" font-family="sans-serif" font-size="13" lengthAdjust="spacing" textLength="116" x="207.5" y="136.4966">Add Task Request</text><line style="stroke:#181818;stroke-width:1.0;" x1="340.5" x2="382.5" y1="170.6953" y2="170.6953"></line><line style="stroke:#181818;stroke-width:1.0;" x1="382.5" x2="382.5" y1="170.6953" y2="183.6953"></line><line style="stroke:#181818;stroke-width:1.0;" x1="341.5" x2="382.5" y1="183.6953" y2="183.6953"></line><polygon fill="#181818" points="351.5,179.6953,341.5,183.6953,351.5,187.6953,347.5,183.6953" style="stroke:#181818;stroke-width:1.0;"></polygon><text fill="#000000" font-family="sans-serif" font-size="13" lengthAdjust="spacing" textLength="121" x="347.5" y="165.6294">Validate Task Data</text><path d="M10,198.6953 L76,198.6953 L76,205.8281 L66,215.8281 L10,215.8281 L10,198.6953 " fill="#EEEEEE" style="stroke:#000000;stroke-width:1.5;"></path><rect fill="none" height="206.7344" style="stroke:#000000;stroke-width:1.5;" width="512.5" x="10" y="198.6953"></rect><text fill="#000000" font-family="sans-serif" font-size="13" font-weight="bold" lengthAdjust="spacing" textLength="21" x="25" y="211.7622">alt</text><text fill="#000000" font-family="sans-serif" font-size="11" font-weight="bold" lengthAdjust="spacing" textLength="154" x="91" y="210.9058">[Validation Successful]</text><polygon fill="#181818" points="463.5,232.9609,473.5,236.9609,463.5,240.9609,467.5,236.9609" style="stroke:#181818;stroke-width:1.0;"></polygon><line style="stroke:#181818;stroke-width:1.0;" x1="340.5" x2="469.5" y1="236.9609" y2="236.9609"></line><text fill="#000000" font-family="sans-serif" font-size="13" lengthAdjust="spacing" textLength="66" x="347.5" y="231.895">Save Task</text><polygon fill="#181818" points="351.5,262.0938,341.5,266.0938,351.5,270.0938,347.5,266.0938" style="stroke:#181818;stroke-width:1.0;"></polygon><line style="stroke:#181818;stroke-width:1.0;stroke-dasharray:2.0,2.0;" x1="345.5" x2="474.5" y1="266.0938" y2="266.0938"></line><text fill="#000000" font-family="sans-serif" font-size="13" lengthAdjust="spacing" textLength="74" x="357.5" y="261.0278">Task Saved</text><polygon fill="#181818" points="211.5,291.2266,201.5,295.2266,211.5,299.2266,207.5,295.2266" style="stroke:#181818;stroke-width:1.0;"></polygon><line style="stroke:#181818;stroke-width:1.0;stroke-dasharray:2.0,2.0;" x1="205.5" x2="339.5" y1="295.2266" y2="295.2266"></line><text fill="#000000" font-family="sans-serif" font-size="13" lengthAdjust="spacing" textLength="74" x="217.5" y="290.1606">Task Saved</text><polygon fill="#181818" points="49.5,320.3594,39.5,324.3594,49.5,328.3594,45.5,324.3594" style="stroke:#181818;stroke-width:1.0;"></polygon><line style="stroke:#181818;stroke-width:1.0;stroke-dasharray:2.0,2.0;" x1="43.5" x2="199.5" y1="324.3594" y2="324.3594"></line><text fill="#000000" font-family="sans-serif" font-size="13" lengthAdjust="spacing" textLength="75" x="55.5" y="319.2935">Task Added</text><line style="stroke:#000000;stroke-width:1.0;stroke-dasharray:2.0,2.0;" x1="10" x2="522.5" y1="333.3594" y2="333.3594"></line><text fill="#000000" font-family="sans-serif" font-size="11" font-weight="bold" lengthAdjust="spacing" textLength="122" x="15" y="343.5698">[Validation Failed]</text><polygon fill="#181818" points="211.5,364.2969,201.5,368.2969,211.5,372.2969,207.5,368.2969" style="stroke:#181818;stroke-width:1.0;"></polygon><line style="stroke:#181818;stroke-width:1.0;stroke-dasharray:2.0,2.0;" x1="205.5" x2="339.5" y1="368.2969" y2="368.2969"></line><text fill="#000000" font-family="sans-serif" font-size="13" lengthAdjust="spacing" textLength="104" x="217.5" y="363.231">Validation Failed</text><polygon fill="#181818" points="49.5,393.4297,39.5,397.4297,49.5,401.4297,45.5,397.4297" style="stroke:#181818;stroke-width:1.0;"></polygon><line style="stroke:#181818;stroke-width:1.0;stroke-dasharray:2.0,2.0;" x1="43.5" x2="199.5" y1="397.4297" y2="397.4297"></line><text fill="#000000" font-family="sans-serif" font-size="13" lengthAdjust="spacing" textLength="138" x="55.5" y="392.3638">Task Validation Failed</text><!--SRC=[ZP1H3e8m38RVTufUW0lmO48q7a3KzxBLP77PS2ictDuD9C0WnhqiQR___zkYPEVX5iYBndLMeU-XQbkZ9R9sLaXdsJi3n_4taIFBcdiu8ME3WOH8QYWEIrq9bL9mnV242xqw2YmMtGJFXZlitCpHEngja6daqmm23K_bv5rtKb88Zyu8Y6zjDGrTGetlqMIWfZeKMTuGarYrSSitpj3Llf5DL_f2STy8aObvYy7FgCqVCVkA7sbR0Ldr0G00]--></g></svg>