<!--?xml version="1.0" encoding="us-ascii" standalone="no"?--><svg xmlns="http://www.w3.org/2000/svg" xmlns:xlink="http://www.w3.org/1999/xlink" contentstyletype="text/css" height="503px" preserveAspectRatio="none" style="width:713px;height:503px;background:#FFFFFF;" version="1.1" viewBox="0 0 713 503" width="713px" zoomAndPan="magnify"><defs></defs><g><rect fill="none" height="206.7344" style="stroke:#000000;stroke-width:1.5;" width="696.5" x="10" y="198.6953"></rect><line style="stroke:#181818;stroke-width:0.5;stroke-dasharray:5.0,5.0;" x1="38" x2="38" y1="81.2969" y2="422.4297"></line><line style="stroke:#181818;stroke-width:0.5;stroke-dasharray:5.0,5.0;" x1="257" x2="257" y1="81.2969" y2="422.4297"></line><line style="stroke:#181818;stroke-width:0.5;stroke-dasharray:5.0,5.0;" x1="476" x2="476" y1="81.2969" y2="422.4297"></line><line style="stroke:#181818;stroke-width:0.5;stroke-dasharray:5.0,5.0;" x1="659.5" x2="659.5" y1="81.2969" y2="422.4297"></line><text fill="#000000" font-family="sans-serif" font-size="14" lengthAdjust="spacing" textLength="31" x="20" y="77.9951">User</text><ellipse cx="38.5" cy="13.5" fill="#E2E2F0" rx="8" ry="8" style="stroke:#181818;stroke-width:0.5;"></ellipse><path d="M38.5,21.5 L38.5,48.5 M25.5,29.5 L51.5,29.5 M38.5,48.5 L25.5,63.5 M38.5,48.5 L51.5,63.5 " fill="none" style="stroke:#181818;stroke-width:0.5;"></path><text fill="#000000" font-family="sans-serif" font-size="14" lengthAdjust="spacing" textLength="31" x="20" y="434.4248">User</text><ellipse cx="38.5" cy="446.2266" fill="#E2E2F0" rx="8" ry="8" style="stroke:#181818;stroke-width:0.5;"></ellipse><path d="M38.5,454.2266 L38.5,481.2266 M25.5,462.2266 L51.5,462.2266 M38.5,481.2266 L25.5,496.2266 M38.5,481.2266 L51.5,496.2266 " fill="none" style="stroke:#181818;stroke-width:0.5;"></path><text fill="#000000" font-family="sans-serif" font-size="14" lengthAdjust="spacing" textLength="83" x="213" y="77.9951">Application</text><path d="M237,37 L237,61 M237,49 L254,49 " fill="none" style="stroke:#181818;stroke-width:0.5;"></path><ellipse cx="266" cy="49" fill="#E2E2F0" rx="12" ry="12" style="stroke:#181818;stroke-width:0.5;"></ellipse><text fill="#000000" font-family="sans-serif" font-size="14" lengthAdjust="spacing" textLength="83" x="213" y="434.4248">Application</text><path d="M237,441.7266 L237,465.7266 M237,453.7266 L254,453.7266 " fill="none" style="stroke:#181818;stroke-width:0.5;"></path><ellipse cx="266" cy="453.7266" fill="#E2E2F0" rx="12" ry="12" style="stroke:#181818;stroke-width:0.5;"></ellipse><text fill="#000000" font-family="sans-serif" font-size="14" lengthAdjust="spacing" textLength="73" x="437" y="77.9951">Controller</text><ellipse cx="476.5" cy="49" fill="#E2E2F0" rx="12" ry="12" style="stroke:#181818;stroke-width:0.5;"></ellipse><polygon fill="#181818" points="472.5,37,478.5,32,476.5,37,478.5,42,472.5,37" style="stroke:#181818;stroke-width:1.0;"></polygon><text fill="#000000" font-family="sans-serif" font-size="14" lengthAdjust="spacing" textLength="73" x="437" y="434.4248">Controller</text><ellipse cx="476.5" cy="453.7266" fill="#E2E2F0" rx="12" ry="12" style="stroke:#181818;stroke-width:0.5;"></ellipse><polygon fill="#181818" points="472.5,441.7266,478.5,436.7266,476.5,441.7266,478.5,446.7266,472.5,441.7266" style="stroke:#181818;stroke-width:1.0;"></polygon><text fill="#000000" font-family="sans-serif" font-size="14" lengthAdjust="spacing" textLength="68" x="622.5" y="77.9951">Database</text><ellipse cx="659.5" cy="49" fill="#E2E2F0" rx="12" ry="12" style="stroke:#181818;stroke-width:0.5;"></ellipse><line style="stroke:#181818;stroke-width:0.5;" x1="647.5" x2="671.5" y1="63" y2="63"></line><text fill="#000000" font-family="sans-serif" font-size="14" lengthAdjust="spacing" textLength="68" x="622.5" y="434.4248">Database</text><ellipse cx="659.5" cy="453.7266" fill="#E2E2F0" rx="12" ry="12" style="stroke:#181818;stroke-width:0.5;"></ellipse><line style="stroke:#181818;stroke-width:0.5;" x1="647.5" x2="671.5" y1="467.7266" y2="467.7266"></line><polygon fill="#181818" points="245.5,108.4297,255.5,112.4297,245.5,116.4297,249.5,112.4297" style="stroke:#181818;stroke-width:1.0;"></polygon><line style="stroke:#181818;stroke-width:1.0;" x1="38.5" x2="251.5" y1="112.4297" y2="112.4297"></line><text fill="#000000" font-family="sans-serif" font-size="13" lengthAdjust="spacing" textLength="195" x="45.5" y="107.3638">Change State of Task Request</text><polygon fill="#181818" points="464.5,137.5625,474.5,141.5625,464.5,145.5625,468.5,141.5625" style="stroke:#181818;stroke-width:1.0;"></polygon><line style="stroke:#181818;stroke-width:1.0;" x1="257.5" x2="470.5" y1="141.5625" y2="141.5625"></line><text fill="#000000" font-family="sans-serif" font-size="13" lengthAdjust="spacing" textLength="195" x="264.5" y="136.4966">Change State of Task Request</text><line style="stroke:#181818;stroke-width:1.0;" x1="476.5" x2="518.5" y1="170.6953" y2="170.6953"></line><line style="stroke:#181818;stroke-width:1.0;" x1="518.5" x2="518.5" y1="170.6953" y2="183.6953"></line><line style="stroke:#181818;stroke-width:1.0;" x1="477.5" x2="518.5" y1="183.6953" y2="183.6953"></line><polygon fill="#181818" points="487.5,179.6953,477.5,183.6953,487.5,187.6953,483.5,183.6953" style="stroke:#181818;stroke-width:1.0;"></polygon><text fill="#000000" font-family="sans-serif" font-size="13" lengthAdjust="spacing" textLength="169" x="483.5" y="165.6294">Validate Task ID and State</text><path d="M10,198.6953 L76,198.6953 L76,205.8281 L66,215.8281 L10,215.8281 L10,198.6953 " fill="#EEEEEE" style="stroke:#000000;stroke-width:1.5;"></path><rect fill="none" height="206.7344" style="stroke:#000000;stroke-width:1.5;" width="696.5" x="10" y="198.6953"></rect><text fill="#000000" font-family="sans-serif" font-size="13" font-weight="bold" lengthAdjust="spacing" textLength="21" x="25" y="211.7622">alt</text><text fill="#000000" font-family="sans-serif" font-size="11" font-weight="bold" lengthAdjust="spacing" textLength="154" x="91" y="210.9058">[Validation Successful]</text><polygon fill="#181818" points="647.5,232.9609,657.5,236.9609,647.5,240.9609,651.5,236.9609" style="stroke:#181818;stroke-width:1.0;"></polygon><line style="stroke:#181818;stroke-width:1.0;" x1="476.5" x2="653.5" y1="236.9609" y2="236.9609"></line><text fill="#000000" font-family="sans-serif" font-size="13" lengthAdjust="spacing" textLength="118" x="483.5" y="231.895">Update Task State</text><polygon fill="#181818" points="487.5,262.0938,477.5,266.0938,487.5,270.0938,483.5,266.0938" style="stroke:#181818;stroke-width:1.0;"></polygon><line style="stroke:#181818;stroke-width:1.0;stroke-dasharray:2.0,2.0;" x1="481.5" x2="658.5" y1="266.0938" y2="266.0938"></line><text fill="#000000" font-family="sans-serif" font-size="13" lengthAdjust="spacing" textLength="126" x="493.5" y="261.0278">Task State Updated</text><polygon fill="#181818" points="268.5,291.2266,258.5,295.2266,268.5,299.2266,264.5,295.2266" style="stroke:#181818;stroke-width:1.0;"></polygon><line style="stroke:#181818;stroke-width:1.0;stroke-dasharray:2.0,2.0;" x1="262.5" x2="475.5" y1="295.2266" y2="295.2266"></line><text fill="#000000" font-family="sans-serif" font-size="13" lengthAdjust="spacing" textLength="126" x="274.5" y="290.1606">Task State Updated</text><polygon fill="#181818" points="49.5,320.3594,39.5,324.3594,49.5,328.3594,45.5,324.3594" style="stroke:#181818;stroke-width:1.0;"></polygon><line style="stroke:#181818;stroke-width:1.0;stroke-dasharray:2.0,2.0;" x1="43.5" x2="256.5" y1="324.3594" y2="324.3594"></line><text fill="#000000" font-family="sans-serif" font-size="13" lengthAdjust="spacing" textLength="129" x="55.5" y="319.2935">Task State Changed</text><line style="stroke:#000000;stroke-width:1.0;stroke-dasharray:2.0,2.0;" x1="10" x2="706.5" y1="333.3594" y2="333.3594"></line><text fill="#000000" font-family="sans-serif" font-size="11" font-weight="bold" lengthAdjust="spacing" textLength="122" x="15" y="343.5698">[Validation Failed]</text><polygon fill="#181818" points="268.5,364.2969,258.5,368.2969,268.5,372.2969,264.5,368.2969" style="stroke:#181818;stroke-width:1.0;"></polygon><line style="stroke:#181818;stroke-width:1.0;stroke-dasharray:2.0,2.0;" x1="262.5" x2="475.5" y1="368.2969" y2="368.2969"></line><text fill="#000000" font-family="sans-serif" font-size="13" lengthAdjust="spacing" textLength="104" x="274.5" y="363.231">Validation Failed</text><polygon fill="#181818" points="49.5,393.4297,39.5,397.4297,49.5,401.4297,45.5,397.4297" style="stroke:#181818;stroke-width:1.0;"></polygon><line style="stroke:#181818;stroke-width:1.0;stroke-dasharray:2.0,2.0;" x1="43.5" x2="256.5" y1="397.4297" y2="397.4297"></line><text fill="#000000" font-family="sans-serif" font-size="13" lengthAdjust="spacing" textLength="138" x="55.5" y="392.3638">Task Validation Failed</text><!--SRC=[ZP1B3i8m34JtEOKlm0MwG4AjaDXIojvDN8Y8aj8uYzwUXbBrno-RB3nlnXwKx1eeF3MYTC4gR5hOrRNH4baxAwIpt3W3QV-RJaUMDRUG8ME9deI8D6osKow1z8hsGf0pCe6hu8J-1aUw1_8i9ie8ZkO_k56unCvej8h8Kt_80AtgJGGQ7iOnBmzIalTLC0AwDxSSZagWg4UxtYUgXpbi5lcZxaMgbVkoeG_8h9kEYUtEn7r3If3fzfWSjaTj_eXzJtn9NGDarGC0]--></g></svg>