<!--?xml version="1.0" encoding="us-ascii" standalone="no"?--><svg xmlns="http://www.w3.org/2000/svg" xmlns:xlink="http://www.w3.org/1999/xlink" contentstyletype="text/css" height="474px" preserveAspectRatio="none" style="width:553px;height:474px;background:#FFFFFF;" version="1.1" viewBox="0 0 553 474" width="553px" zoomAndPan="magnify"><defs></defs><g><rect fill="#FFFFFF" height="270.8672" style="stroke:#181818;stroke-width:1.0;" width="10" x="200.5" y="112.4297"></rect><rect fill="#FFFFFF" height="182.7969" style="stroke:#181818;stroke-width:1.0;" width="10" x="345.5" y="141.5625"></rect><rect fill="#FFFFFF" height="116.5313" style="stroke:#181818;stroke-width:1.0;" width="10" x="350.5" y="178.6953"></rect><rect fill="#FFFFFF" height="29.1328" style="stroke:#181818;stroke-width:1.0;" width="10" x="490.5" y="236.9609"></rect><rect fill="none" height="177.6016" style="stroke:#000000;stroke-width:1.5;" width="536.5" x="10" y="198.6953"></rect><line style="stroke:#181818;stroke-width:0.5;stroke-dasharray:5.0,5.0;" x1="38" x2="38" y1="81.2969" y2="393.2969"></line><line style="stroke:#181818;stroke-width:0.5;stroke-dasharray:5.0,5.0;" x1="205" x2="205" y1="81.2969" y2="393.2969"></line><line style="stroke:#181818;stroke-width:0.5;stroke-dasharray:5.0,5.0;" x1="350" x2="350" y1="81.2969" y2="393.2969"></line><line style="stroke:#181818;stroke-width:0.5;stroke-dasharray:5.0,5.0;" x1="495.5" x2="495.5" y1="81.2969" y2="393.2969"></line><text fill="#000000" font-family="sans-serif" font-size="14" lengthAdjust="spacing" textLength="31" x="20" y="77.9951">User</text><ellipse cx="38.5" cy="13.5" fill="#E2E2F0" rx="8" ry="8" style="stroke:#181818;stroke-width:0.5;"></ellipse><path d="M38.5,21.5 L38.5,48.5 M25.5,29.5 L51.5,29.5 M38.5,48.5 L25.5,63.5 M38.5,48.5 L51.5,63.5 " fill="none" style="stroke:#181818;stroke-width:0.5;"></path><text fill="#000000" font-family="sans-serif" font-size="14" lengthAdjust="spacing" textLength="31" x="20" y="405.292">User</text><ellipse cx="38.5" cy="417.0938" fill="#E2E2F0" rx="8" ry="8" style="stroke:#181818;stroke-width:0.5;"></ellipse><path d="M38.5,425.0938 L38.5,452.0938 M25.5,433.0938 L51.5,433.0938 M38.5,452.0938 L25.5,467.0938 M38.5,452.0938 L51.5,467.0938 " fill="none" style="stroke:#181818;stroke-width:0.5;"></path><rect fill="#E2E2F0" height="30.2969" rx="2.5" ry="2.5" style="stroke:#181818;stroke-width:0.5;" width="97" x="157" y="50"></rect><text fill="#000000" font-family="sans-serif" font-size="14" lengthAdjust="spacing" textLength="83" x="164" y="69.9951">Application</text><rect fill="#E2E2F0" height="30.2969" rx="2.5" ry="2.5" style="stroke:#181818;stroke-width:0.5;" width="97" x="157" y="392.2969"></rect><text fill="#000000" font-family="sans-serif" font-size="14" lengthAdjust="spacing" textLength="83" x="164" y="412.292">Application</text><rect fill="#E2E2F0" height="30.2969" rx="2.5" ry="2.5" style="stroke:#181818;stroke-width:0.5;" width="87" x="307" y="50"></rect><text fill="#000000" font-family="sans-serif" font-size="14" lengthAdjust="spacing" textLength="73" x="314" y="69.9951">Controller</text><rect fill="#E2E2F0" height="30.2969" rx="2.5" ry="2.5" style="stroke:#181818;stroke-width:0.5;" width="87" x="307" y="392.2969"></rect><text fill="#000000" font-family="sans-serif" font-size="14" lengthAdjust="spacing" textLength="73" x="314" y="412.292">Controller</text><rect fill="#E2E2F0" height="30.2969" rx="2.5" ry="2.5" style="stroke:#181818;stroke-width:0.5;" width="82" x="454.5" y="50"></rect><text fill="#000000" font-family="sans-serif" font-size="14" lengthAdjust="spacing" textLength="68" x="461.5" y="69.9951">Database</text><rect fill="#E2E2F0" height="30.2969" rx="2.5" ry="2.5" style="stroke:#181818;stroke-width:0.5;" width="82" x="454.5" y="392.2969"></rect><text fill="#000000" font-family="sans-serif" font-size="14" lengthAdjust="spacing" textLength="68" x="461.5" y="412.292">Database</text><rect fill="#FFFFFF" height="270.8672" style="stroke:#181818;stroke-width:1.0;" width="10" x="200.5" y="112.4297"></rect><rect fill="#FFFFFF" height="182.7969" style="stroke:#181818;stroke-width:1.0;" width="10" x="345.5" y="141.5625"></rect><rect fill="#FFFFFF" height="116.5313" style="stroke:#181818;stroke-width:1.0;" width="10" x="350.5" y="178.6953"></rect><rect fill="#FFFFFF" height="29.1328" style="stroke:#181818;stroke-width:1.0;" width="10" x="490.5" y="236.9609"></rect><polygon fill="#181818" points="188.5,108.4297,198.5,112.4297,188.5,116.4297,192.5,112.4297" style="stroke:#181818;stroke-width:1.0;"></polygon><line style="stroke:#181818;stroke-width:1.0;" x1="38.5" x2="194.5" y1="112.4297" y2="112.4297"></line><text fill="#000000" font-family="sans-serif" font-size="13" lengthAdjust="spacing" textLength="116" x="45.5" y="107.3638">Add Task Request</text><polygon fill="#181818" points="333.5,137.5625,343.5,141.5625,333.5,145.5625,337.5,141.5625" style="stroke:#181818;stroke-width:1.0;"></polygon><line style="stroke:#181818;stroke-width:1.0;" x1="210.5" x2="339.5" y1="141.5625" y2="141.5625"></line><text fill="#000000" font-family="sans-serif" font-size="13" lengthAdjust="spacing" textLength="116" x="217.5" y="136.4966">Add Task Request</text><line style="stroke:#181818;stroke-width:1.0;" x1="355.5" x2="402.5" y1="165.6953" y2="165.6953"></line><line style="stroke:#181818;stroke-width:1.0;" x1="402.5" x2="402.5" y1="165.6953" y2="178.6953"></line><line style="stroke:#181818;stroke-width:1.0;" x1="361.5" x2="402.5" y1="178.6953" y2="178.6953"></line><polygon fill="#181818" points="371.5,174.6953,361.5,178.6953,371.5,182.6953,367.5,178.6953" style="stroke:#181818;stroke-width:1.0;"></polygon><text fill="#000000" font-family="sans-serif" font-size="13" lengthAdjust="spacing" textLength="121" x="367.5" y="160.6294">Validate Task Data</text><path d="M10,198.6953 L76,198.6953 L76,205.8281 L66,215.8281 L10,215.8281 L10,198.6953 " fill="#EEEEEE" style="stroke:#000000;stroke-width:1.5;"></path><rect fill="none" height="177.6016" style="stroke:#000000;stroke-width:1.5;" width="536.5" x="10" y="198.6953"></rect><text fill="#000000" font-family="sans-serif" font-size="13" font-weight="bold" lengthAdjust="spacing" textLength="21" x="25" y="211.7622">alt</text><text fill="#000000" font-family="sans-serif" font-size="11" font-weight="bold" lengthAdjust="spacing" textLength="154" x="91" y="210.9058">[Validation Successful]</text><polygon fill="#181818" points="478.5,232.9609,488.5,236.9609,478.5,240.9609,482.5,236.9609" style="stroke:#181818;stroke-width:1.0;"></polygon><line style="stroke:#181818;stroke-width:1.0;" x1="360.5" x2="484.5" y1="236.9609" y2="236.9609"></line><text fill="#000000" font-family="sans-serif" font-size="13" lengthAdjust="spacing" textLength="66" x="367.5" y="231.895">Save Task</text><polygon fill="#181818" points="371.5,262.0938,361.5,266.0938,371.5,270.0938,367.5,266.0938" style="stroke:#181818;stroke-width:1.0;"></polygon><line style="stroke:#181818;stroke-width:1.0;stroke-dasharray:2.0,2.0;" x1="365.5" x2="494.5" y1="266.0938" y2="266.0938"></line><text fill="#000000" font-family="sans-serif" font-size="13" lengthAdjust="spacing" textLength="74" x="377.5" y="261.0278">Task Saved</text><polygon fill="#181818" points="221.5,291.2266,211.5,295.2266,221.5,299.2266,217.5,295.2266" style="stroke:#181818;stroke-width:1.0;"></polygon><line style="stroke:#181818;stroke-width:1.0;stroke-dasharray:2.0,2.0;" x1="215.5" x2="344.5" y1="295.2266" y2="295.2266"></line><text fill="#000000" font-family="sans-serif" font-size="13" lengthAdjust="spacing" textLength="74" x="227.5" y="290.1606">Task Saved</text><polygon fill="#181818" points="49.5,320.3594,39.5,324.3594,49.5,328.3594,45.5,324.3594" style="stroke:#181818;stroke-width:1.0;"></polygon><line style="stroke:#181818;stroke-width:1.0;stroke-dasharray:2.0,2.0;" x1="43.5" x2="199.5" y1="324.3594" y2="324.3594"></line><text fill="#000000" font-family="sans-serif" font-size="13" lengthAdjust="spacing" textLength="75" x="55.5" y="319.2935">Task Added</text><line style="stroke:#000000;stroke-width:1.0;stroke-dasharray:2.0,2.0;" x1="10" x2="546.5" y1="333.3594" y2="333.3594"></line><text fill="#000000" font-family="sans-serif" font-size="11" font-weight="bold" lengthAdjust="spacing" textLength="122" x="15" y="343.5698">[Validation Failed]</text><polygon fill="#181818" points="49.5,364.2969,39.5,368.2969,49.5,372.2969,45.5,368.2969" style="stroke:#181818;stroke-width:1.0;"></polygon><line style="stroke:#181818;stroke-width:1.0;stroke-dasharray:2.0,2.0;" x1="43.5" x2="199.5" y1="368.2969" y2="368.2969"></line><text fill="#000000" font-family="sans-serif" font-size="13" lengthAdjust="spacing" textLength="138" x="55.5" y="363.231">Task Validation Failed</text><!--SRC=[fP513e8m44NtFSLSW0kmC24Q3o3gVcp7fB41f0FdjuCYRKKtiYgJ-U___gBcjeUJfrvrsBFLjiE6eUewPpMoRPjalcqRxbldilKTCbxGar92Wc8J0qgeZ84Z-XiSw3wGPuMQxOXCYKzq5i9YzGiG1LgEkVoCpXhPdXWILg7ZUIn-zQ0rUNyTd8BmhU5bdbhCjowXnl49JzNlMcGw_q2HfPj22S5CUuRMzR5tNl1tH7Q1fED0aUTwoKF7GKuk98oAsQDr_r0_KTGO5Q4YxGC0]--></g></svg>