<!--?xml version="1.0" encoding="us-ascii" standalone="no"?--><svg xmlns="http://www.w3.org/2000/svg" xmlns:xlink="http://www.w3.org/1999/xlink" contentstyletype="text/css" height="474px" preserveAspectRatio="none" style="width:732px;height:474px;background:#FFFFFF;" version="1.1" viewBox="0 0 732 474" width="732px" zoomAndPan="magnify"><defs></defs><g><rect fill="#FFFFFF" height="270.8672" style="stroke:#181818;stroke-width:1.0;" width="10" x="252.5" y="112.4297"></rect><rect fill="#FFFFFF" height="182.7969" style="stroke:#181818;stroke-width:1.0;" width="10" x="476.5" y="141.5625"></rect><rect fill="#FFFFFF" height="116.5313" style="stroke:#181818;stroke-width:1.0;" width="10" x="481.5" y="178.6953"></rect><rect fill="#FFFFFF" height="29.1328" style="stroke:#181818;stroke-width:1.0;" width="10" x="669.5" y="236.9609"></rect><rect fill="none" height="177.6016" style="stroke:#000000;stroke-width:1.5;" width="715.5" x="10" y="198.6953"></rect><line style="stroke:#181818;stroke-width:0.5;stroke-dasharray:5.0,5.0;" x1="38" x2="38" y1="81.2969" y2="393.2969"></line><line style="stroke:#181818;stroke-width:0.5;stroke-dasharray:5.0,5.0;" x1="257" x2="257" y1="81.2969" y2="393.2969"></line><line style="stroke:#181818;stroke-width:0.5;stroke-dasharray:5.0,5.0;" x1="481" x2="481" y1="81.2969" y2="393.2969"></line><line style="stroke:#181818;stroke-width:0.5;stroke-dasharray:5.0,5.0;" x1="674.5" x2="674.5" y1="81.2969" y2="393.2969"></line><text fill="#000000" font-family="sans-serif" font-size="14" lengthAdjust="spacing" textLength="31" x="20" y="77.9951">User</text><ellipse cx="38.5" cy="13.5" fill="#E2E2F0" rx="8" ry="8" style="stroke:#181818;stroke-width:0.5;"></ellipse><path d="M38.5,21.5 L38.5,48.5 M25.5,29.5 L51.5,29.5 M38.5,48.5 L25.5,63.5 M38.5,48.5 L51.5,63.5 " fill="none" style="stroke:#181818;stroke-width:0.5;"></path><text fill="#000000" font-family="sans-serif" font-size="14" lengthAdjust="spacing" textLength="31" x="20" y="405.292">User</text><ellipse cx="38.5" cy="417.0938" fill="#E2E2F0" rx="8" ry="8" style="stroke:#181818;stroke-width:0.5;"></ellipse><path d="M38.5,425.0938 L38.5,452.0938 M25.5,433.0938 L51.5,433.0938 M38.5,452.0938 L25.5,467.0938 M38.5,452.0938 L51.5,467.0938 " fill="none" style="stroke:#181818;stroke-width:0.5;"></path><rect fill="#E2E2F0" height="30.2969" rx="2.5" ry="2.5" style="stroke:#181818;stroke-width:0.5;" width="97" x="209" y="50"></rect><text fill="#000000" font-family="sans-serif" font-size="14" lengthAdjust="spacing" textLength="83" x="216" y="69.9951">Application</text><rect fill="#E2E2F0" height="30.2969" rx="2.5" ry="2.5" style="stroke:#181818;stroke-width:0.5;" width="97" x="209" y="392.2969"></rect><text fill="#000000" font-family="sans-serif" font-size="14" lengthAdjust="spacing" textLength="83" x="216" y="412.292">Application</text><rect fill="#E2E2F0" height="30.2969" rx="2.5" ry="2.5" style="stroke:#181818;stroke-width:0.5;" width="87" x="438" y="50"></rect><text fill="#000000" font-family="sans-serif" font-size="14" lengthAdjust="spacing" textLength="73" x="445" y="69.9951">Controller</text><rect fill="#E2E2F0" height="30.2969" rx="2.5" ry="2.5" style="stroke:#181818;stroke-width:0.5;" width="87" x="438" y="392.2969"></rect><text fill="#000000" font-family="sans-serif" font-size="14" lengthAdjust="spacing" textLength="73" x="445" y="412.292">Controller</text><rect fill="#E2E2F0" height="30.2969" rx="2.5" ry="2.5" style="stroke:#181818;stroke-width:0.5;" width="82" x="633.5" y="50"></rect><text fill="#000000" font-family="sans-serif" font-size="14" lengthAdjust="spacing" textLength="68" x="640.5" y="69.9951">Database</text><rect fill="#E2E2F0" height="30.2969" rx="2.5" ry="2.5" style="stroke:#181818;stroke-width:0.5;" width="82" x="633.5" y="392.2969"></rect><text fill="#000000" font-family="sans-serif" font-size="14" lengthAdjust="spacing" textLength="68" x="640.5" y="412.292">Database</text><rect fill="#FFFFFF" height="270.8672" style="stroke:#181818;stroke-width:1.0;" width="10" x="252.5" y="112.4297"></rect><rect fill="#FFFFFF" height="182.7969" style="stroke:#181818;stroke-width:1.0;" width="10" x="476.5" y="141.5625"></rect><rect fill="#FFFFFF" height="116.5313" style="stroke:#181818;stroke-width:1.0;" width="10" x="481.5" y="178.6953"></rect><rect fill="#FFFFFF" height="29.1328" style="stroke:#181818;stroke-width:1.0;" width="10" x="669.5" y="236.9609"></rect><polygon fill="#181818" points="240.5,108.4297,250.5,112.4297,240.5,116.4297,244.5,112.4297" style="stroke:#181818;stroke-width:1.0;"></polygon><line style="stroke:#181818;stroke-width:1.0;" x1="38.5" x2="246.5" y1="112.4297" y2="112.4297"></line><text fill="#000000" font-family="sans-serif" font-size="13" lengthAdjust="spacing" textLength="195" x="45.5" y="107.3638">Change State of Task Request</text><polygon fill="#181818" points="464.5,137.5625,474.5,141.5625,464.5,145.5625,468.5,141.5625" style="stroke:#181818;stroke-width:1.0;"></polygon><line style="stroke:#181818;stroke-width:1.0;" x1="262.5" x2="470.5" y1="141.5625" y2="141.5625"></line><text fill="#000000" font-family="sans-serif" font-size="13" lengthAdjust="spacing" textLength="195" x="269.5" y="136.4966">Change State of Task Request</text><line style="stroke:#181818;stroke-width:1.0;" x1="486.5" x2="533.5" y1="165.6953" y2="165.6953"></line><line style="stroke:#181818;stroke-width:1.0;" x1="533.5" x2="533.5" y1="165.6953" y2="178.6953"></line><line style="stroke:#181818;stroke-width:1.0;" x1="492.5" x2="533.5" y1="178.6953" y2="178.6953"></line><polygon fill="#181818" points="502.5,174.6953,492.5,178.6953,502.5,182.6953,498.5,178.6953" style="stroke:#181818;stroke-width:1.0;"></polygon><text fill="#000000" font-family="sans-serif" font-size="13" lengthAdjust="spacing" textLength="169" x="498.5" y="160.6294">Validate Task ID and State</text><path d="M10,198.6953 L76,198.6953 L76,205.8281 L66,215.8281 L10,215.8281 L10,198.6953 " fill="#EEEEEE" style="stroke:#000000;stroke-width:1.5;"></path><rect fill="none" height="177.6016" style="stroke:#000000;stroke-width:1.5;" width="715.5" x="10" y="198.6953"></rect><text fill="#000000" font-family="sans-serif" font-size="13" font-weight="bold" lengthAdjust="spacing" textLength="21" x="25" y="211.7622">alt</text><text fill="#000000" font-family="sans-serif" font-size="11" font-weight="bold" lengthAdjust="spacing" textLength="154" x="91" y="210.9058">[Validation Successful]</text><polygon fill="#181818" points="657.5,232.9609,667.5,236.9609,657.5,240.9609,661.5,236.9609" style="stroke:#181818;stroke-width:1.0;"></polygon><line style="stroke:#181818;stroke-width:1.0;" x1="491.5" x2="663.5" y1="236.9609" y2="236.9609"></line><text fill="#000000" font-family="sans-serif" font-size="13" lengthAdjust="spacing" textLength="118" x="498.5" y="231.895">Update Task State</text><polygon fill="#181818" points="502.5,262.0938,492.5,266.0938,502.5,270.0938,498.5,266.0938" style="stroke:#181818;stroke-width:1.0;"></polygon><line style="stroke:#181818;stroke-width:1.0;stroke-dasharray:2.0,2.0;" x1="496.5" x2="673.5" y1="266.0938" y2="266.0938"></line><text fill="#000000" font-family="sans-serif" font-size="13" lengthAdjust="spacing" textLength="126" x="508.5" y="261.0278">Task State Updated</text><polygon fill="#181818" points="273.5,291.2266,263.5,295.2266,273.5,299.2266,269.5,295.2266" style="stroke:#181818;stroke-width:1.0;"></polygon><line style="stroke:#181818;stroke-width:1.0;stroke-dasharray:2.0,2.0;" x1="267.5" x2="475.5" y1="295.2266" y2="295.2266"></line><text fill="#000000" font-family="sans-serif" font-size="13" lengthAdjust="spacing" textLength="126" x="279.5" y="290.1606">Task State Updated</text><polygon fill="#181818" points="49.5,320.3594,39.5,324.3594,49.5,328.3594,45.5,324.3594" style="stroke:#181818;stroke-width:1.0;"></polygon><line style="stroke:#181818;stroke-width:1.0;stroke-dasharray:2.0,2.0;" x1="43.5" x2="251.5" y1="324.3594" y2="324.3594"></line><text fill="#000000" font-family="sans-serif" font-size="13" lengthAdjust="spacing" textLength="129" x="55.5" y="319.2935">Task State Changed</text><line style="stroke:#000000;stroke-width:1.0;stroke-dasharray:2.0,2.0;" x1="10" x2="725.5" y1="333.3594" y2="333.3594"></line><text fill="#000000" font-family="sans-serif" font-size="11" font-weight="bold" lengthAdjust="spacing" textLength="122" x="15" y="343.5698">[Validation Failed]</text><polygon fill="#181818" points="49.5,364.2969,39.5,368.2969,49.5,372.2969,45.5,368.2969" style="stroke:#181818;stroke-width:1.0;"></polygon><line style="stroke:#181818;stroke-width:1.0;stroke-dasharray:2.0,2.0;" x1="43.5" x2="251.5" y1="368.2969" y2="368.2969"></line><text fill="#000000" font-family="sans-serif" font-size="13" lengthAdjust="spacing" textLength="138" x="55.5" y="363.231">Task Validation Failed</text><!--SRC=[fP7F3i8W3CRlF4LVm1VmO69SJBpwxrwXKo8179tFxt3E0IxHH4wbBR_leqN9he53e4PuR5XBxT4oBBqtMY9hPxFyobbkd355UuMC9mmaH2J1R942vh2we3qJx1YPmDMmnt25BTrQ2YnGihx7GggPn94soluAIuoEOOawej4gTZyPcmhGgXuiqF1GZXvshPGKGjqQ0TsPaedvN6gOoXmEVfJf-HdbFRwO7IumAzoEhryyzUnNDCr9lPGB-OugFfRjewF5DMUOVYjAaEcS9uDRepR_q3zHP9L8KCdR1m00]--></g></svg>