<!--?xml version="1.0" encoding="us-ascii" standalone="no"?--><svg xmlns="http://www.w3.org/2000/svg" xmlns:xlink="http://www.w3.org/1999/xlink" contentstyletype="text/css" height="446px" preserveAspectRatio="none" style="width:682px;height:446px;background:#FFFFFF;" version="1.1" viewBox="0 0 682 446" width="682px" zoomAndPan="magnify"><defs></defs><g><!--cluster To-Do List Application--><g id="cluster_To-Do List Application"><rect fill="none" height="433" rx="2.5" ry="2.5" style="stroke:#181818;stroke-width:1.0;" width="223" x="84" y="7"></rect><text fill="#000000" font-family="sans-serif" font-size="14" font-weight="bold" lengthAdjust="spacing" textLength="182" x="104.5" y="21.9951">To-Do List Application</text></g><g id="elem_UC1"><ellipse cx="195.3925" cy="57.0785" fill="#F1F1F1" rx="63.3925" ry="15.0785" style="stroke:#181818;stroke-width:0.5;"></ellipse><text fill="#000000" font-family="sans-serif" font-size="14" lengthAdjust="spacing" textLength="74" x="155.3925" y="60.8261">User Login</text></g><g id="elem_UC2"><ellipse cx="195.5731" cy="121.7619" fill="#F1F1F1" rx="58.5731" ry="14.7619" style="stroke:#181818;stroke-width:0.5;"></ellipse><text fill="#000000" font-family="sans-serif" font-size="14" lengthAdjust="spacing" textLength="65" x="160.0731" y="125.5095">Add Task</text></g><g id="elem_UC3"><ellipse cx="195.6781" cy="189.1356" fill="#F1F1F1" rx="71.1781" ry="16.6356" style="stroke:#181818;stroke-width:0.5;"></ellipse><text fill="#000000" font-family="sans-serif" font-size="14" lengthAdjust="spacing" textLength="96" x="144.6781" y="192.8832">Remove Task</text></g><g id="elem_UC4"><ellipse cx="195.3197" cy="255.7671" fill="#F1F1F1" rx="59.3197" ry="14.7671" style="stroke:#181818;stroke-width:0.5;"></ellipse><text fill="#000000" font-family="sans-serif" font-size="14" lengthAdjust="spacing" textLength="66" x="159.3197" y="259.5147">Edit Task</text></g><g id="elem_UC5"><ellipse cx="195.4604" cy="327.9921" fill="#F1F1F1" rx="95.4604" ry="21.4921" style="stroke:#181818;stroke-width:0.5;"></ellipse><text fill="#000000" font-family="sans-serif" font-size="14" lengthAdjust="spacing" textLength="154" x="118.4604" y="330.8388">Change State of Task</text></g><g id="elem_UC6"><ellipse cx="195.6635" cy="404.1327" fill="#F1F1F1" rx="86.1635" ry="19.6327" style="stroke:#181818;stroke-width:0.5;"></ellipse><text fill="#000000" font-family="sans-serif" font-size="14" lengthAdjust="spacing" textLength="133" x="129.1635" y="406.9794">Add Task to Group</text></g><!--entity User--><g id="elem_User"><ellipse cx="21.5" cy="193.5" fill="#F1F1F1" rx="8" ry="8" style="stroke:#181818;stroke-width:0.5;"></ellipse><path d="M21.5,201.5 L21.5,228.5 M8.5,209.5 L34.5,209.5 M21.5,228.5 L8.5,243.5 M21.5,228.5 L34.5,243.5 " fill="none" style="stroke:#181818;stroke-width:0.5;"></path><text fill="#000000" font-family="sans-serif" font-size="14" lengthAdjust="spacing" textLength="31" x="6" y="257.9951">User</text></g><!--entity DB--><g id="elem_DB"><rect fill="#F1F1F1" height="36.2969" rx="2.5" ry="2.5" style="stroke:#181818;stroke-width:0.5;" width="88" x="539.5" y="238"></rect><text fill="#000000" font-family="sans-serif" font-size="14" lengthAdjust="spacing" textLength="68" x="549.5" y="260.9951">Database</text></g><!--entity Auth--><g id="elem_Auth"><rect fill="#F1F1F1" height="36.2969" rx="2.5" ry="2.5" style="stroke:#181818;stroke-width:0.5;" width="185" x="491" y="39"></rect><text fill="#000000" font-family="sans-serif" font-size="14" lengthAdjust="spacing" textLength="165" x="501" y="61.9951">Authentication Service</text></g><!--link User to UC1--><g id="link_User_UC1"><path d="M28.2459,184.737 C34.7539,154.585 48.3083,113.65 76,89 C91.0406,75.612 111.123,67.747 130.475,63.153 " fill="none" id="User-to-UC1" style="stroke:#181818;stroke-width:1.0;"></path><polygon fill="#181818" points="135.376,62.054,125.7187,60.1208,130.4972,63.1483,127.4697,67.9268,135.376,62.054" style="stroke:#181818;stroke-width:1.0;"></polygon></g><!--link User to UC2--><g id="link_User_UC2"><path d="M37.0315,197.333 C46.4168,182.93 59.8757,165.747 76,155 C94.508,142.664 117.57,134.904 138.418,130.038 " fill="none" id="User-to-UC2" style="stroke:#181818;stroke-width:1.0;"></path><polygon fill="#181818" points="143.385,128.922,133.7272,126.9915,138.5065,130.0177,135.4803,134.797,143.385,128.922" style="stroke:#181818;stroke-width:1.0;"></polygon></g><!--link User to UC3--><g id="link_User_UC3"><path d="M37.1646,220.101 C58.8453,215.815 100.671,207.548 135.75,200.613 " fill="none" id="User-to-UC3" style="stroke:#181818;stroke-width:1.0;"></path><polygon fill="#181818" points="140.874,199.601,131.269,197.4227,135.969,200.5709,132.8208,205.2708,140.874,199.601" style="stroke:#181818;stroke-width:1.0;"></polygon></g><!--link User to UC4--><g id="link_User_UC4"><path d="M37.1646,225.814 C60.2391,230.241 106.132,239.046 142.425,246.009 " fill="none" id="User-to-UC4" style="stroke:#181818;stroke-width:1.0;"></path><polygon fill="#181818" points="147.706,247.022,139.6199,241.3992,142.7954,246.0807,138.1139,249.2562,147.706,247.022" style="stroke:#181818;stroke-width:1.0;"></polygon></g><!--link User to UC5--><g id="link_User_UC5"><path d="M37.1516,247.315 C46.6656,261.264 60.2152,278.113 76,289 C89.734,298.472 105.9321,305.775 121.868,311.357 " fill="none" id="User-to-UC5" style="stroke:#181818;stroke-width:1.0;"></path><polygon fill="#181818" points="126.802,313.034,119.5673,306.3513,122.0678,311.4255,116.9936,313.926,126.802,313.034" style="stroke:#181818;stroke-width:1.0;"></polygon></g><!--link User to UC6--><g id="link_User_UC6"><path d="M27.2508,261.177 C33.2393,293.571 46.5848,339.106 76,367 C87.9051,378.2894 103.2083,386.1364 118.836,391.5901 " fill="none" id="User-to-UC6" style="stroke:#181818;stroke-width:1.0;"></path><polygon fill="#181818" points="123.693,393.2069,116.4181,386.568,118.9492,391.627,113.8902,394.1581,123.693,393.2069" style="stroke:#181818;stroke-width:1.0;"></polygon></g><!--link UC1 to Auth--><g id="link_UC1_Auth"><path d="M259.377,57 C320.711,57 414.865,57 485.743,57 " fill="none" id="UC1-to-Auth" style="stroke:#181818;stroke-width:1.0;"></path><polygon fill="#181818" points="490.805,57,481.805,53,485.805,57,481.805,61,490.805,57" style="stroke:#181818;stroke-width:1.0;"></polygon><text fill="#000000" font-family="sans-serif" font-size="13" lengthAdjust="spacing" textLength="82" x="351" y="53.0669">Authenticate</text></g><!--link UC2 to DB--><g id="link_UC2_DB"><path d="M247.123,129.158 C301.412,137.905 389.461,155.21 461,184 C494.191,197.357 529.019,218.88 552.835,234.919 " fill="none" id="UC2-to-DB" style="stroke:#181818;stroke-width:1.0;"></path><polygon fill="#181818" points="557.15,237.847,551.9484,229.4838,553.0125,235.0396,547.4567,236.1037,557.15,237.847" style="stroke:#181818;stroke-width:1.0;"></polygon><text fill="#000000" font-family="sans-serif" font-size="13" lengthAdjust="spacing" textLength="66" x="359" y="140.0669">Save Task</text></g><!--link UC3 to DB--><g id="link_UC3_DB"><path d="M254.353,198.244 C307.981,206.903 389.96,220.369 461,233 C485.17,237.298 511.99,242.345 534.27,246.615 " fill="none" id="UC3-to-DB" style="stroke:#181818;stroke-width:1.0;"></path><polygon fill="#181818" points="539.244,247.57,531.1595,241.945,534.3337,246.6274,529.6513,249.8015,539.244,247.57" style="stroke:#181818;stroke-width:1.0;"></polygon><text fill="#000000" font-family="sans-serif" font-size="13" lengthAdjust="spacing" textLength="88" x="348" y="205.0669">Remove Task</text></g><!--link UC4 to DB--><g id="link_UC4_DB"><path d="M255.125,256 C331.383,256 463.206,256 534.08,256 " fill="none" id="UC4-to-DB" style="stroke:#181818;stroke-width:1.0;"></path><polygon fill="#181818" points="539.493,256,530.493,252,534.493,256,530.493,260,539.493,256" style="stroke:#181818;stroke-width:1.0;"></polygon><text fill="#000000" font-family="sans-serif" font-size="13" lengthAdjust="spacing" textLength="80" x="352" y="252.0669">Update Task</text></g><!--link UC5 to DB--><g id="link_UC5_DB"><path d="M272.133,315.12 C325.084,305.966 397.445,293.183 461,281 C485.186,276.364 512.008,270.881 534.284,266.233 " fill="none" id="UC5-to-DB" style="stroke:#181818;stroke-width:1.0;"></path><polygon fill="#181818" points="539.258,265.194,529.6295,263.1224,534.364,266.2182,531.2682,270.9528,539.258,265.194" style="stroke:#181818;stroke-width:1.0;"></polygon><text fill="#000000" font-family="sans-serif" font-size="13" lengthAdjust="spacing" textLength="118" x="333" y="277.0669">Update Task State</text></g><!--link UC6 to DB--><g id="link_UC6_DB"><path d="M261.574,391.4475 C316.214,379.6456 395.609,359.5112 461,331 C494.371,316.45 529.439,293.912 553.275,277.338 " fill="none" id="UC6-to-DB" style="stroke:#181818;stroke-width:1.0;"></path><polygon fill="#181818" points="557.592,274.317,547.9248,276.1999,553.4954,277.1837,552.5116,282.7544,557.592,274.317" style="stroke:#181818;stroke-width:1.0;"></polygon><text fill="#000000" font-family="sans-serif" font-size="13" lengthAdjust="spacing" textLength="136" x="324" y="327.0669">Assign Task to Group</text></g><!--SRC=[RT2zReCm40VmtKznOcS8NqE7IWIgBfb2U00NBc2LOcGVMQA-Ussmn5NAnlbtPtF_2Uy4fC6eOIJebS6Eb9w5x4WRQ2qQa1OY_n49Zt8U9eJefkDQmqLPWd9P9jL9FnR1Km2i5ZjfSP-2YnwK0tTBMvsubdqFDsc_WoNShlYZ7yWvvVpHA-AOSQn6zuy83Kb2q7VUbxzwtw__QVIwXAP2_0g-QYr9Vhc9ZUipftAb4MSAsqE3vg6wlT6J45i2SVo-xSwAX1SfBp9UvBmet7NLQIlyvV06x7bqbcnMdvqqCgJdZjFZcCNg83kWNNgVLe3y9Uo9EYuEBgrLm_m_nZy0]--></g></svg>