<!--?xml version="1.0" encoding="us-ascii" standalone="no"?--><svg xmlns="http://www.w3.org/2000/svg" xmlns:xlink="http://www.w3.org/1999/xlink" contentstyletype="text/css" height="431px" preserveAspectRatio="none" style="width:443px;height:431px;background:#FFFFFF;" version="1.1" viewBox="0 0 443 431" width="443px" zoomAndPan="magnify"><defs></defs><g><rect fill="none" height="148.4688" style="stroke:#000000;stroke-width:1.5;" width="426.5" x="10" y="185.6953"></rect><line style="stroke:#181818;stroke-width:0.5;stroke-dasharray:5.0,5.0;" x1="38" x2="38" y1="81.2969" y2="351.1641"></line><line style="stroke:#181818;stroke-width:0.5;stroke-dasharray:5.0,5.0;" x1="218" x2="218" y1="81.2969" y2="351.1641"></line><line style="stroke:#181818;stroke-width:0.5;stroke-dasharray:5.0,5.0;" x1="385.5" x2="385.5" y1="81.2969" y2="351.1641"></line><text fill="#000000" font-family="sans-serif" font-size="14" lengthAdjust="spacing" textLength="31" x="20" y="77.9951">User</text><ellipse cx="38.5" cy="13.5" fill="#E2E2F0" rx="8" ry="8" style="stroke:#181818;stroke-width:0.5;"></ellipse><path d="M38.5,21.5 L38.5,48.5 M25.5,29.5 L51.5,29.5 M38.5,48.5 L25.5,63.5 M38.5,48.5 L51.5,63.5 " fill="none" style="stroke:#181818;stroke-width:0.5;"></path><text fill="#000000" font-family="sans-serif" font-size="14" lengthAdjust="spacing" textLength="31" x="20" y="363.1592">User</text><ellipse cx="38.5" cy="374.9609" fill="#E2E2F0" rx="8" ry="8" style="stroke:#181818;stroke-width:0.5;"></ellipse><path d="M38.5,382.9609 L38.5,409.9609 M25.5,390.9609 L51.5,390.9609 M38.5,409.9609 L25.5,424.9609 M38.5,409.9609 L51.5,424.9609 " fill="none" style="stroke:#181818;stroke-width:0.5;"></path><rect fill="#E2E2F0" height="30.2969" rx="2.5" ry="2.5" style="stroke:#181818;stroke-width:0.5;" width="175" x="131" y="50"></rect><text fill="#000000" font-family="sans-serif" font-size="14" lengthAdjust="spacing" textLength="161" x="138" y="69.9951">To-Do List Application</text><rect fill="#E2E2F0" height="30.2969" rx="2.5" ry="2.5" style="stroke:#181818;stroke-width:0.5;" width="175" x="131" y="350.1641"></rect><text fill="#000000" font-family="sans-serif" font-size="14" lengthAdjust="spacing" textLength="161" x="138" y="370.1592">To-Do List Application</text><rect fill="#E2E2F0" height="30.2969" rx="2.5" ry="2.5" style="stroke:#181818;stroke-width:0.5;" width="82" x="344.5" y="50"></rect><text fill="#000000" font-family="sans-serif" font-size="14" lengthAdjust="spacing" textLength="68" x="351.5" y="69.9951">Database</text><rect fill="#E2E2F0" height="30.2969" rx="2.5" ry="2.5" style="stroke:#181818;stroke-width:0.5;" width="82" x="344.5" y="350.1641"></rect><text fill="#000000" font-family="sans-serif" font-size="14" lengthAdjust="spacing" textLength="68" x="351.5" y="370.1592">Database</text><polygon fill="#181818" points="206.5,108.4297,216.5,112.4297,206.5,116.4297,210.5,112.4297" style="stroke:#181818;stroke-width:1.0;"></polygon><line style="stroke:#181818;stroke-width:1.0;" x1="38.5" x2="212.5" y1="112.4297" y2="112.4297"></line><text fill="#000000" font-family="sans-serif" font-size="13" lengthAdjust="spacing" textLength="156" x="45.5" y="107.3638">Select "Add Task" option</text><polygon fill="#181818" points="49.5,137.5625,39.5,141.5625,49.5,145.5625,45.5,141.5625" style="stroke:#181818;stroke-width:1.0;"></polygon><line style="stroke:#181818;stroke-width:1.0;" x1="43.5" x2="217.5" y1="141.5625" y2="141.5625"></line><text fill="#000000" font-family="sans-serif" font-size="13" lengthAdjust="spacing" textLength="113" x="55.5" y="136.4966">Display task form</text><polygon fill="#181818" points="206.5,166.6953,216.5,170.6953,206.5,174.6953,210.5,170.6953" style="stroke:#181818;stroke-width:1.0;"></polygon><line style="stroke:#181818;stroke-width:1.0;" x1="38.5" x2="212.5" y1="170.6953" y2="170.6953"></line><text fill="#000000" font-family="sans-serif" font-size="13" lengthAdjust="spacing" textLength="111" x="45.5" y="165.6294">Enter task details</text><path d="M10,185.6953 L76,185.6953 L76,192.8281 L66,202.8281 L10,202.8281 L10,185.6953 " fill="#EEEEEE" style="stroke:#000000;stroke-width:1.5;"></path><rect fill="none" height="148.4688" style="stroke:#000000;stroke-width:1.5;" width="426.5" x="10" y="185.6953"></rect><text fill="#000000" font-family="sans-serif" font-size="13" font-weight="bold" lengthAdjust="spacing" textLength="21" x="25" y="198.7622">alt</text><text fill="#000000" font-family="sans-serif" font-size="11" font-weight="bold" lengthAdjust="spacing" textLength="152" x="91" y="197.9058">[Task details are valid]</text><polygon fill="#181818" points="373.5,219.9609,383.5,223.9609,373.5,227.9609,377.5,223.9609" style="stroke:#181818;stroke-width:1.0;"></polygon><line style="stroke:#181818;stroke-width:1.0;" x1="218.5" x2="379.5" y1="223.9609" y2="223.9609"></line><text fill="#000000" font-family="sans-serif" font-size="13" lengthAdjust="spacing" textLength="143" x="225.5" y="218.895">SaveTask(taskDetails)</text><polygon fill="#181818" points="229.5,249.0938,219.5,253.0938,229.5,257.0938,225.5,253.0938" style="stroke:#181818;stroke-width:1.0;"></polygon><line style="stroke:#181818;stroke-width:1.0;stroke-dasharray:2.0,2.0;" x1="223.5" x2="384.5" y1="253.0938" y2="253.0938"></line><text fill="#000000" font-family="sans-serif" font-size="13" lengthAdjust="spacing" textLength="73" x="235.5" y="248.0278">Task saved</text><polygon fill="#181818" points="49.5,278.2266,39.5,282.2266,49.5,286.2266,45.5,282.2266" style="stroke:#181818;stroke-width:1.0;"></polygon><line style="stroke:#181818;stroke-width:1.0;stroke-dasharray:2.0,2.0;" x1="43.5" x2="217.5" y1="282.2266" y2="282.2266"></line><text fill="#000000" font-family="sans-serif" font-size="13" lengthAdjust="spacing" textLength="146" x="55.5" y="277.1606">Confirmation message</text><line style="stroke:#000000;stroke-width:1.0;stroke-dasharray:2.0,2.0;" x1="10" x2="436.5" y1="291.2266" y2="291.2266"></line><text fill="#000000" font-family="sans-serif" font-size="11" font-weight="bold" lengthAdjust="spacing" textLength="164" x="15" y="301.437">[Task details are invalid]</text><polygon fill="#181818" points="49.5,322.1641,39.5,326.1641,49.5,330.1641,45.5,326.1641" style="stroke:#181818;stroke-width:1.0;"></polygon><line style="stroke:#181818;stroke-width:1.0;stroke-dasharray:2.0,2.0;" x1="43.5" x2="217.5" y1="326.1641" y2="326.1641"></line><text fill="#000000" font-family="sans-serif" font-size="13" lengthAdjust="spacing" textLength="94" x="55.5" y="321.0981">Error message</text><!--SRC=[PP11RWCX34NtdC9YrIxc0bbKofJikcjo06TmAgiC86n5wkrZQ3DgMbOOFp- -Z8kM1YUX1YZW-yMxYarvuOfPmH_B50gyiIZiQqsye7B9lkDMFx815SyeDBfXTcw8fvTExk2T4Yr6xME48ygdXrAxorctGntUGM2f2Rz0ZO1BQUkZv93Lgj6CfCX972OTlli3O2EuOkBemCwFFSoM0A_KoQS-7xxfvm656QRx5yCbXlwQt-AzbdpXjeubm4eY-46Eaj3_29p_XDWaXzPiwzjqZZS0]--></g></svg>