<!--?xml version="1.0" encoding="us-ascii" standalone="no"?--><svg xmlns="http://www.w3.org/2000/svg" xmlns:xlink="http://www.w3.org/1999/xlink" contentstyletype="text/css" height="519px" preserveAspectRatio="none" style="width:626px;height:519px;background:#FFFFFF;" version="1.1" viewBox="0 0 626 519" width="626px" zoomAndPan="magnify"><defs></defs><g><rect fill="none" height="265" style="stroke:#000000;stroke-width:1.5;" width="609.5" x="10" y="156.5625"></rect><line style="stroke:#181818;stroke-width:0.5;stroke-dasharray:5.0,5.0;" x1="38" x2="38" y1="81.2969" y2="438.5625"></line><line style="stroke:#181818;stroke-width:0.5;stroke-dasharray:5.0,5.0;" x1="312" x2="312" y1="81.2969" y2="438.5625"></line><line style="stroke:#181818;stroke-width:0.5;stroke-dasharray:5.0,5.0;" x1="568.5" x2="568.5" y1="81.2969" y2="438.5625"></line><text fill="#000000" font-family="sans-serif" font-size="14" lengthAdjust="spacing" textLength="31" x="20" y="77.9951">User</text><ellipse cx="38.5" cy="13.5" fill="#E2E2F0" rx="8" ry="8" style="stroke:#181818;stroke-width:0.5;"></ellipse><path d="M38.5,21.5 L38.5,48.5 M25.5,29.5 L51.5,29.5 M38.5,48.5 L25.5,63.5 M38.5,48.5 L51.5,63.5 " fill="none" style="stroke:#181818;stroke-width:0.5;"></path><text fill="#000000" font-family="sans-serif" font-size="14" lengthAdjust="spacing" textLength="31" x="20" y="450.5576">User</text><ellipse cx="38.5" cy="462.3594" fill="#E2E2F0" rx="8" ry="8" style="stroke:#181818;stroke-width:0.5;"></ellipse><path d="M38.5,470.3594 L38.5,497.3594 M25.5,478.3594 L51.5,478.3594 M38.5,497.3594 L25.5,512.3594 M38.5,497.3594 L51.5,512.3594 " fill="none" style="stroke:#181818;stroke-width:0.5;"></path><rect fill="#E2E2F0" height="30.2969" rx="2.5" ry="2.5" style="stroke:#181818;stroke-width:0.5;" width="175" x="225" y="50"></rect><text fill="#000000" font-family="sans-serif" font-size="14" lengthAdjust="spacing" textLength="161" x="232" y="69.9951">To-Do List Application</text><rect fill="#E2E2F0" height="30.2969" rx="2.5" ry="2.5" style="stroke:#181818;stroke-width:0.5;" width="175" x="225" y="437.5625"></rect><text fill="#000000" font-family="sans-serif" font-size="14" lengthAdjust="spacing" textLength="161" x="232" y="457.5576">To-Do List Application</text><rect fill="#E2E2F0" height="30.2969" rx="2.5" ry="2.5" style="stroke:#181818;stroke-width:0.5;" width="82" x="527.5" y="50"></rect><text fill="#000000" font-family="sans-serif" font-size="14" lengthAdjust="spacing" textLength="68" x="534.5" y="69.9951">Database</text><rect fill="#E2E2F0" height="30.2969" rx="2.5" ry="2.5" style="stroke:#181818;stroke-width:0.5;" width="82" x="527.5" y="437.5625"></rect><text fill="#000000" font-family="sans-serif" font-size="14" lengthAdjust="spacing" textLength="68" x="534.5" y="457.5576">Database</text><polygon fill="#181818" points="300.5,108.4297,310.5,112.4297,300.5,116.4297,304.5,112.4297" style="stroke:#181818;stroke-width:1.0;"></polygon><line style="stroke:#181818;stroke-width:1.0;" x1="38.5" x2="306.5" y1="112.4297" y2="112.4297"></line><text fill="#000000" font-family="sans-serif" font-size="13" lengthAdjust="spacing" textLength="115" x="45.5" y="107.3638">Select task to edit</text><polygon fill="#181818" points="556.5,137.5625,566.5,141.5625,556.5,145.5625,560.5,141.5625" style="stroke:#181818;stroke-width:1.0;"></polygon><line style="stroke:#181818;stroke-width:1.0;" x1="312.5" x2="562.5" y1="141.5625" y2="141.5625"></line><text fill="#000000" font-family="sans-serif" font-size="13" lengthAdjust="spacing" textLength="145" x="319.5" y="136.4966">GetTaskDetails(taskId)</text><path d="M10,156.5625 L76,156.5625 L76,163.6953 L66,173.6953 L10,173.6953 L10,156.5625 " fill="#EEEEEE" style="stroke:#000000;stroke-width:1.5;"></path><rect fill="none" height="265" style="stroke:#000000;stroke-width:1.5;" width="609.5" x="10" y="156.5625"></rect><text fill="#000000" font-family="sans-serif" font-size="13" font-weight="bold" lengthAdjust="spacing" textLength="21" x="25" y="169.6294">alt</text><text fill="#000000" font-family="sans-serif" font-size="11" font-weight="bold" lengthAdjust="spacing" textLength="85" x="91" y="168.7729">[Task exists]</text><polygon fill="#181818" points="323.5,190.8281,313.5,194.8281,323.5,198.8281,319.5,194.8281" style="stroke:#181818;stroke-width:1.0;"></polygon><line style="stroke:#181818;stroke-width:1.0;stroke-dasharray:2.0,2.0;" x1="317.5" x2="567.5" y1="194.8281" y2="194.8281"></line><text fill="#000000" font-family="sans-serif" font-size="13" lengthAdjust="spacing" textLength="76" x="329.5" y="189.7622">Task details</text><polygon fill="#181818" points="49.5,219.9609,39.5,223.9609,49.5,227.9609,45.5,223.9609" style="stroke:#181818;stroke-width:1.0;"></polygon><line style="stroke:#181818;stroke-width:1.0;" x1="43.5" x2="311.5" y1="223.9609" y2="223.9609"></line><text fill="#000000" font-family="sans-serif" font-size="13" lengthAdjust="spacing" textLength="250" x="55.5" y="218.895">Display task form with pre-filled details</text><polygon fill="#181818" points="300.5,249.0938,310.5,253.0938,300.5,257.0938,304.5,253.0938" style="stroke:#181818;stroke-width:1.0;"></polygon><line style="stroke:#181818;stroke-width:1.0;" x1="38.5" x2="306.5" y1="253.0938" y2="253.0938"></line><text fill="#000000" font-family="sans-serif" font-size="13" lengthAdjust="spacing" textLength="119" x="45.5" y="248.0278">Modify task details</text><polygon fill="#181818" points="556.5,278.2266,566.5,282.2266,556.5,286.2266,560.5,282.2266" style="stroke:#181818;stroke-width:1.0;"></polygon><line style="stroke:#181818;stroke-width:1.0;" x1="312.5" x2="562.5" y1="282.2266" y2="282.2266"></line><text fill="#000000" font-family="sans-serif" font-size="13" lengthAdjust="spacing" textLength="232" x="319.5" y="277.1606">UpdateTask(taskId, modifiedDetails)</text><polygon fill="#181818" points="323.5,307.3594,313.5,311.3594,323.5,315.3594,319.5,311.3594" style="stroke:#181818;stroke-width:1.0;"></polygon><line style="stroke:#181818;stroke-width:1.0;stroke-dasharray:2.0,2.0;" x1="317.5" x2="567.5" y1="311.3594" y2="311.3594"></line><text fill="#000000" font-family="sans-serif" font-size="13" lengthAdjust="spacing" textLength="87" x="329.5" y="306.2935">Task updated</text><polygon fill="#181818" points="49.5,336.4922,39.5,340.4922,49.5,344.4922,45.5,340.4922" style="stroke:#181818;stroke-width:1.0;"></polygon><line style="stroke:#181818;stroke-width:1.0;stroke-dasharray:2.0,2.0;" x1="43.5" x2="311.5" y1="340.4922" y2="340.4922"></line><text fill="#000000" font-family="sans-serif" font-size="13" lengthAdjust="spacing" textLength="146" x="55.5" y="335.4263">Confirmation message</text><line style="stroke:#000000;stroke-width:1.0;stroke-dasharray:2.0,2.0;" x1="10" x2="619.5" y1="349.4922" y2="349.4922"></line><text fill="#000000" font-family="sans-serif" font-size="11" font-weight="bold" lengthAdjust="spacing" textLength="142" x="15" y="359.7026">[Task does not exist]</text><polygon fill="#181818" points="323.5,380.4297,313.5,384.4297,323.5,388.4297,319.5,384.4297" style="stroke:#181818;stroke-width:1.0;"></polygon><line style="stroke:#181818;stroke-width:1.0;stroke-dasharray:2.0,2.0;" x1="317.5" x2="567.5" y1="384.4297" y2="384.4297"></line><text fill="#000000" font-family="sans-serif" font-size="13" lengthAdjust="spacing" textLength="96" x="329.5" y="379.3638">Task not found</text><polygon fill="#181818" points="49.5,409.5625,39.5,413.5625,49.5,417.5625,45.5,413.5625" style="stroke:#181818;stroke-width:1.0;"></polygon><line style="stroke:#181818;stroke-width:1.0;stroke-dasharray:2.0,2.0;" x1="43.5" x2="311.5" y1="413.5625" y2="413.5625"></line><text fill="#000000" font-family="sans-serif" font-size="13" lengthAdjust="spacing" textLength="94" x="55.5" y="408.4966">Error message</text><!--SRC=[RP51JiGm34NtEONL5IFH2tI1H0b28y6AcGEOnWMBD8bYZu3RqwHbKALcbUJxFtydE6ZCS1RAW09DsJGcOLOUE65GQ4wnjH6UMHJkK_8ye78CJIcVpzjQYuflA5HLsnjJmUrTgUpWbJmD2eho2Hg17AkPXQBRleCdqjCiML9aBpUbxEWE1hr2kGVwdZE8WNdP7je_QjNSOghYYYojEx0ioUFFqdICUO8lrWz8cTgHlIUtiMxYlaJ7u-hSuPV8v-HGgIHOuzx2L5nCRXtZi9_tKetkdtSD_133o7cgZmmJYU0x6V92ww2H14BKvJNsuKKUuoNiuHzpdl_xoWtk5m00]--></g></svg>