<!--?xml version="1.0" encoding="us-ascii" standalone="no"?--><svg xmlns="http://www.w3.org/2000/svg" xmlns:xlink="http://www.w3.org/1999/xlink" contentstyletype="text/css" height="461px" preserveAspectRatio="none" style="width:557px;height:461px;background:#FFFFFF;" version="1.1" viewBox="0 0 557 461" width="557px" zoomAndPan="magnify"><defs></defs><g><rect fill="none" height="148.4688" style="stroke:#000000;stroke-width:1.5;" width="540.5" x="10" y="214.8281"></rect><line style="stroke:#181818;stroke-width:0.5;stroke-dasharray:5.0,5.0;" x1="38" x2="38" y1="81.2969" y2="380.2969"></line><line style="stroke:#181818;stroke-width:0.5;stroke-dasharray:5.0,5.0;" x1="248" x2="248" y1="81.2969" y2="380.2969"></line><line style="stroke:#181818;stroke-width:0.5;stroke-dasharray:5.0,5.0;" x1="499.5" x2="499.5" y1="81.2969" y2="380.2969"></line><text fill="#000000" font-family="sans-serif" font-size="14" lengthAdjust="spacing" textLength="31" x="20" y="77.9951">User</text><ellipse cx="38.5" cy="13.5" fill="#E2E2F0" rx="8" ry="8" style="stroke:#181818;stroke-width:0.5;"></ellipse><path d="M38.5,21.5 L38.5,48.5 M25.5,29.5 L51.5,29.5 M38.5,48.5 L25.5,63.5 M38.5,48.5 L51.5,63.5 " fill="none" style="stroke:#181818;stroke-width:0.5;"></path><text fill="#000000" font-family="sans-serif" font-size="14" lengthAdjust="spacing" textLength="31" x="20" y="392.292">User</text><ellipse cx="38.5" cy="404.0938" fill="#E2E2F0" rx="8" ry="8" style="stroke:#181818;stroke-width:0.5;"></ellipse><path d="M38.5,412.0938 L38.5,439.0938 M25.5,420.0938 L51.5,420.0938 M38.5,439.0938 L25.5,454.0938 M38.5,439.0938 L51.5,454.0938 " fill="none" style="stroke:#181818;stroke-width:0.5;"></path><rect fill="#E2E2F0" height="30.2969" rx="2.5" ry="2.5" style="stroke:#181818;stroke-width:0.5;" width="175" x="161" y="50"></rect><text fill="#000000" font-family="sans-serif" font-size="14" lengthAdjust="spacing" textLength="161" x="168" y="69.9951">To-Do List Application</text><rect fill="#E2E2F0" height="30.2969" rx="2.5" ry="2.5" style="stroke:#181818;stroke-width:0.5;" width="175" x="161" y="379.2969"></rect><text fill="#000000" font-family="sans-serif" font-size="14" lengthAdjust="spacing" textLength="161" x="168" y="399.292">To-Do List Application</text><rect fill="#E2E2F0" height="30.2969" rx="2.5" ry="2.5" style="stroke:#181818;stroke-width:0.5;" width="82" x="458.5" y="50"></rect><text fill="#000000" font-family="sans-serif" font-size="14" lengthAdjust="spacing" textLength="68" x="465.5" y="69.9951">Database</text><rect fill="#E2E2F0" height="30.2969" rx="2.5" ry="2.5" style="stroke:#181818;stroke-width:0.5;" width="82" x="458.5" y="379.2969"></rect><text fill="#000000" font-family="sans-serif" font-size="14" lengthAdjust="spacing" textLength="68" x="465.5" y="399.292">Database</text><polygon fill="#181818" points="236.5,108.4297,246.5,112.4297,236.5,116.4297,240.5,112.4297" style="stroke:#181818;stroke-width:1.0;"></polygon><line style="stroke:#181818;stroke-width:1.0;" x1="38.5" x2="242.5" y1="112.4297" y2="112.4297"></line><text fill="#000000" font-family="sans-serif" font-size="13" lengthAdjust="spacing" textLength="175" x="45.5" y="107.3638">Select task to change state</text><polygon fill="#181818" points="49.5,137.5625,39.5,141.5625,49.5,145.5625,45.5,141.5625" style="stroke:#181818;stroke-width:1.0;"></polygon><line style="stroke:#181818;stroke-width:1.0;" x1="43.5" x2="247.5" y1="141.5625" y2="141.5625"></line><text fill="#000000" font-family="sans-serif" font-size="13" lengthAdjust="spacing" textLength="186" x="55.5" y="136.4966">Display state change options</text><polygon fill="#181818" points="236.5,166.6953,246.5,170.6953,236.5,174.6953,240.5,170.6953" style="stroke:#181818;stroke-width:1.0;"></polygon><line style="stroke:#181818;stroke-width:1.0;" x1="38.5" x2="242.5" y1="170.6953" y2="170.6953"></line><text fill="#000000" font-family="sans-serif" font-size="13" lengthAdjust="spacing" textLength="107" x="45.5" y="165.6294">Select new state</text><polygon fill="#181818" points="487.5,195.8281,497.5,199.8281,487.5,203.8281,491.5,199.8281" style="stroke:#181818;stroke-width:1.0;"></polygon><line style="stroke:#181818;stroke-width:1.0;" x1="248.5" x2="493.5" y1="199.8281" y2="199.8281"></line><text fill="#000000" font-family="sans-serif" font-size="13" lengthAdjust="spacing" textLength="227" x="255.5" y="194.7622">UpdateTaskState(taskId, newState)</text><path d="M10,214.8281 L76,214.8281 L76,221.9609 L66,231.9609 L10,231.9609 L10,214.8281 " fill="#EEEEEE" style="stroke:#000000;stroke-width:1.5;"></path><rect fill="none" height="148.4688" style="stroke:#000000;stroke-width:1.5;" width="540.5" x="10" y="214.8281"></rect><text fill="#000000" font-family="sans-serif" font-size="13" font-weight="bold" lengthAdjust="spacing" textLength="21" x="25" y="227.895">alt</text><text fill="#000000" font-family="sans-serif" font-size="11" font-weight="bold" lengthAdjust="spacing" textLength="85" x="91" y="227.0386">[Task exists]</text><polygon fill="#181818" points="259.5,249.0938,249.5,253.0938,259.5,257.0938,255.5,253.0938" style="stroke:#181818;stroke-width:1.0;"></polygon><line style="stroke:#181818;stroke-width:1.0;stroke-dasharray:2.0,2.0;" x1="253.5" x2="498.5" y1="253.0938" y2="253.0938"></line><text fill="#000000" font-family="sans-serif" font-size="13" lengthAdjust="spacing" textLength="124" x="265.5" y="248.0278">Task state updated</text><polygon fill="#181818" points="49.5,278.2266,39.5,282.2266,49.5,286.2266,45.5,282.2266" style="stroke:#181818;stroke-width:1.0;"></polygon><line style="stroke:#181818;stroke-width:1.0;stroke-dasharray:2.0,2.0;" x1="43.5" x2="247.5" y1="282.2266" y2="282.2266"></line><text fill="#000000" font-family="sans-serif" font-size="13" lengthAdjust="spacing" textLength="146" x="55.5" y="277.1606">Confirmation message</text><line style="stroke:#000000;stroke-width:1.0;stroke-dasharray:2.0,2.0;" x1="10" x2="550.5" y1="291.2266" y2="291.2266"></line><text fill="#000000" font-family="sans-serif" font-size="11" font-weight="bold" lengthAdjust="spacing" textLength="142" x="15" y="301.437">[Task does not exist]</text><polygon fill="#181818" points="259.5,322.1641,249.5,326.1641,259.5,330.1641,255.5,326.1641" style="stroke:#181818;stroke-width:1.0;"></polygon><line style="stroke:#181818;stroke-width:1.0;stroke-dasharray:2.0,2.0;" x1="253.5" x2="498.5" y1="326.1641" y2="326.1641"></line><text fill="#000000" font-family="sans-serif" font-size="13" lengthAdjust="spacing" textLength="96" x="265.5" y="321.0981">Task not found</text><polygon fill="#181818" points="49.5,351.2969,39.5,355.2969,49.5,359.2969,45.5,355.2969" style="stroke:#181818;stroke-width:1.0;"></polygon><line style="stroke:#181818;stroke-width:1.0;stroke-dasharray:2.0,2.0;" x1="43.5" x2="247.5" y1="355.2969" y2="355.2969"></line><text fill="#000000" font-family="sans-serif" font-size="13" lengthAdjust="spacing" textLength="94" x="55.5" y="350.231">Error message</text><!--SRC=[RP51RWCX34NtdCAQLIjrBZ2BIftIHQNkaXp01IT5dM247RMzVJ6ZH8eqhC3_yRyD69Gh78GgeC1Wcy4Lh9f2AfWLXZsFdk4ZYS9BAKiAg8dpO7WxtxCU5JzHgAj-TguRZyz6Jh2ZXOA2edo3CeGlp2S2KLHo3J3E-0byahBWtofTEIwMAvkMcNxkVVmymQ74Ljctj9r93vRx7fyCxeL7Xuk2wK2_RJnnq9QVORowTsrjujBDOaTwngtPLyx7LC_zLU1C8dWYHulGUZqo2MJMDMCxmkGZN_AM_LkjxODklZd-0m00]--></g></svg>